<?xml version="1.0" standalone="no"?>
<!DOCTYPE svg PUBLIC "-//W3C//DTD SVG 1.1//EN" "http://www.w3.org/Graphics/SVG/1.1/DTD/svg11.dtd" >
<svg xmlns="http://www.w3.org/2000/svg">
    <defs>
        <font id="Miller-Text">
            <font-face font-family="Miller Text"
                       units-per-em="1000"
                       ascent="935"
                       descent="-237"
                       bbox="-139 -237 1202 935"
                    />
            <missing-glyph horiz-adv-x="0" />
            
            <glyph glyph-name="!" unicode="&#x21;" horiz-adv-x="252" d=" M247,633 Q247,616 240,553.5 Q233,491 221,390 Q209,289 202,211 L166,211 Q160,291 149,389.5 Q138,488 130.5,551.5 Q123,615 123,633 Q123,661 140.5,681 Q158,701 185,701 Q212,701 229.5,681 Q247,661 247,633 M252,82 Q252,26 232.5,7 Q213,-12 185,-12 Q157,-12 137.5,7 Q118,26 118,54 Q118,82 137.5,101.5 Q157,121 185,121 Q213,121 252,82"/> 
            <glyph glyph-name="&quot;" unicode="&#x22;" horiz-adv-x="349" d=" M349,682 Q349,671 343,643.5 Q337,616 326.5,566.5 Q316,517 308,472 L278,472 Q271,518 261,566.5 Q251,615 245,642.5 Q239,670 239,682 Q239,706 253.5,721.5 Q268,737 294,737 Q320,737 334.5,721.5 Q349,706 349,682 M153,682 Q153,671 147,643.5 Q141,616 130.5,566.5 Q120,517 112,472 L82,472 Q75,518 65,566.5 Q55,615 49,642.5 Q43,670 43,682 Q43,706 57.5,721.5 Q72,737 98,737 Q124,737 138.5,721.5 Q153,706 153,682"/> 
            <glyph glyph-name="#" unicode="&#x23;" horiz-adv-x="489" d=" M489,221 L381,194 L381,-7 L349,-7 L349,186 L232,157 L232,-7 L200,-7 L200,149 L93,122 L93,213 L200,240 L200,351 L93,324 L93,415 L200,442 L200,627 L232,627 L232,450 L349,479 L349,627 L381,627 L381,487 L489,514 L489,423 L381,396 L381,285 L489,312 M349,277 L349,388 L232,359 L232,248"/> 
            <glyph glyph-name="$" unicode="&#x24;" horiz-adv-x="537" d=" M537,188 Q537,100 479.5,50 Q422,0 328,-6 L328,-142 L294,-142 L294,-7 Q201,-5 139.5,37 Q78,79 78,146 Q78,174 93,190.5 Q108,207 133,207 Q154,207 168,191 Q182,175 182,152 Q182,135 169,121 Q156,107 154,99 Q170,29 294,28 L294,265 Q206,270 149.5,312.5 Q93,355 93,433 Q93,465 103,494.5 Q113,524 135,552 Q157,580 198,598 Q239,616 294,619 L294,713 L328,713 L328,620 Q425,618 473.5,583 Q522,548 522,499 Q522,470 508,454.5 Q494,439 474,439 Q455,439 441.5,452 Q428,465 428,484 Q428,499 436.5,514 Q445,529 447,539 Q434,583 328,585 L328,367 Q428,359 482.5,314.5 Q537,270 537,188 M294,369 L294,584 Q231,580 197.5,552 Q164,524 164,483 Q164,426 195.5,401.5 Q227,377 294,369 M469,145 Q469,195 432.5,227 Q396,259 328,264 L328,29 Q469,40 469,145"/> 
            <glyph glyph-name="%" unicode="&#x25;" horiz-adv-x="813" d=" M813,141 Q813,77 763.5,31.5 Q714,-14 652,-14 Q587,-14 541,29 Q495,72 495,145 Q495,212 543.5,258 Q592,304 652,304 Q718,304 765.5,261 Q813,218 813,141 M671,672 L242,-101 L205,-80 L632,693 M383,457 Q383,393 333.5,347.5 Q284,302 222,302 Q157,302 111,345 Q65,388 65,461 Q65,528 113.5,574 Q162,620 222,620 Q288,620 335.5,577 Q383,534 383,457 M734,141 Q734,206 712.5,239.5 Q691,273 653,273 Q616,273 595,239 Q574,205 574,146 Q574,84 595,50.5 Q616,17 655,17 Q688,17 711,49 Q734,81 734,141 M304,457 Q304,522 282.5,555.5 Q261,589 223,589 Q186,589 165,555 Q144,521 144,462 Q144,400 165,366.5 Q186,333 225,333 Q258,333 281,365 Q304,397 304,457"/> 
            <glyph glyph-name="&amp;" unicode="&#x26;" horiz-adv-x="751" d=" M751,399 Q667,390 643,378 Q629,371 620,361 Q609,348 568.5,271.5 Q528,195 493,153 Q543,90 588,63 Q630,38 724,33 L724,0 L490,0 L423,83 Q326,-16 228,-16 Q150,-16 93.5,26.5 Q37,69 37,152 Q37,217 76.5,268 Q116,319 203,374 Q163,435 148,471 Q133,507 133,543 Q133,610 184,653.5 Q235,697 305,697 Q372,697 406.5,658 Q441,619 441,565 Q441,514 408,473 Q375,432 310,393 Q367,309 470,181 Q549,293 549,359 Q549,373 529,381.5 Q509,390 464,399 L464,431 L751,431 M383,560 Q383,606 362,630.5 Q341,655 307,655 Q264,655 246.5,626 Q229,597 229,566 Q229,508 292,421 Q383,476 383,560 M400,110 Q381,135 341.5,186.5 Q302,238 271.5,278.5 Q241,319 222,348 Q140,297 140,190 Q140,128 175,88.5 Q210,49 271,49 Q350,49 400,110"/> 
            <glyph glyph-name="'" unicode="&#x27;" horiz-adv-x="153" d=" M153,682 Q153,671 147,643.5 Q141,616 130.5,566.5 Q120,517 112,472 L82,472 Q75,518 65,566.5 Q55,615 49,642.5 Q43,670 43,682 Q43,706 57.5,721.5 Q72,737 98,737 Q124,737 138.5,721.5 Q153,706 153,682"/> 
            <glyph glyph-name="(" unicode="&#x28;" horiz-adv-x="332" d=" M332,-133 L290,-160 Q239,-121 201.5,-84 Q164,-47 125.5,8.5 Q87,64 66.5,136.5 Q46,209 46,295 Q46,378 66,449 Q86,520 123,575 Q160,630 198.5,669 Q237,708 289,748 L332,721 Q284,684 248.5,647.5 Q213,611 178.5,559.5 Q144,508 126,441 Q108,374 108,295 Q108,30 332,-133"/> 
            <glyph glyph-name=")" unicode="&#x29;" horiz-adv-x="319" d=" M319,295 Q319,209 298.5,136.5 Q278,64 239.5,8.5 Q201,-47 163.5,-84 Q126,-121 75,-160 L33,-133 Q257,30 257,295 Q257,374 239,441 Q221,508 186.5,559.5 Q152,611 116.5,647.5 Q81,684 33,721 L76,748 Q128,708 166.5,669 Q205,630 242,575 Q279,520 299,449 Q319,378 319,295"/> 
            <glyph glyph-name="*" unicode="&#x2A;" horiz-adv-x="393" d=" M393,443 Q393,429 383,417 Q373,405 358,405 Q341,405 315,430 Q267,476 230,503 Q234,467 246,420 Q258,373 258,364 Q258,348 248.5,338 Q239,328 222,328 Q205,328 195.5,338 Q186,348 186,364 Q186,373 197.5,420 Q209,467 213,503 Q183,482 129,430 Q103,405 86,405 Q71,405 61,417 Q51,429 51,443 Q51,462 70,471 Q78,475 123.5,489 Q169,503 206,519 Q169,535 123.5,549 Q78,563 70,567 Q51,576 51,595 Q51,609 61,621 Q71,633 86,633 Q103,633 129,608 Q183,556 213,535 Q209,570 197.5,617 Q186,664 186,674 Q186,690 195.5,700 Q205,710 222,710 Q239,710 248.5,700 Q258,690 258,674 Q258,665 246,618 Q234,571 230,535 Q264,559 315,608 Q341,633 358,633 Q373,633 383,621 Q393,609 393,595 Q393,576 374,567 Q366,563 320.5,549 Q275,535 238,519 Q275,503 320.5,489 Q366,475 374,471 Q393,462 393,443"/> 
            <glyph glyph-name="+" unicode="&#x2B;" horiz-adv-x="531" d=" M531,234 L317,234 L317,19 L263,19 L263,234 L49,234 L49,286 L263,286 L263,501 L317,501 L317,286 L531,286"/> 
            <glyph glyph-name="," unicode="&#x2C;" horiz-adv-x="197" d=" M197,18 Q197,-43 152,-94 Q107,-145 57,-172 L36,-139 Q140,-78 147,2 L120,2 Q84,2 67.5,20 Q51,38 51,65 Q51,88 68,106 Q85,124 113,124 Q197,124 197,18"/> 
            <glyph glyph-name="-" unicode="&#x2D;" horiz-adv-x="334" d=" M334,212 L40,212 L40,289 L334,289"/> 
            <glyph glyph-name="." unicode="&#x2E;" horiz-adv-x="193" d=" M193,85 Q193,29 173.5,10 Q154,-9 126,-9 Q98,-9 78.5,10 Q59,29 59,57 Q59,85 78.5,104.5 Q98,124 126,124 Q154,124 193,85"/> 
            <glyph glyph-name="/" unicode="&#x2F;" horiz-adv-x="385" d=" M385,739 L72,-212 L22,-199 L334,752"/> 
            <glyph glyph-name="0" unicode="&#x30;" horiz-adv-x="564" d=" M564,316 Q564,168 487,77 Q410,-14 302,-14 Q184,-14 117,73 Q50,160 50,288 Q50,436 127.5,527 Q205,618 312,618 Q430,618 497,531.5 Q564,445 564,316 M456,303 Q456,426 418.5,504 Q381,582 309,582 Q244,582 201,505 Q158,428 158,301 Q158,175 195.5,98.5 Q233,22 305,22 Q369,22 412.5,99 Q456,176 456,303"/> 
            <glyph glyph-name="1" unicode="&#x31;" horiz-adv-x="384" d=" M384,0 L74,0 L74,33 Q138,37 153,42 Q167,47 175.5,60 Q184,73 184,89 L184,516 Q169,512 143,512 Q103,512 27,575 L40,598 Q93,575 145,575 Q210,575 271,617 L294,617 Q280,533 280,467 L280,94 Q280,59 309,46 Q330,36 384,33"/> 
            <glyph glyph-name="2" unicode="&#x32;" horiz-adv-x="519" d=" M519,171 L460,0 L48,0 L48,37 Q154,113 199,149.5 Q244,186 289,235 Q373,326 373,443 Q373,511 342.5,546 Q312,581 264,581 Q218,581 185,556 Q152,531 150,496 Q151,492 164,474 Q177,456 177,436 Q177,376 119,376 Q90,376 75.5,396 Q61,416 61,443 Q61,466 74,495 Q87,524 112,552 Q137,580 181,599 Q225,618 279,618 Q366,618 421.5,568.5 Q477,519 477,439 Q477,343 418.5,275 Q360,207 189,106 L162,81 L396,81 Q413,81 427,88 Q441,95 453.5,113 Q466,131 471,140 Q476,149 487,173 Q490,178 491,181"/> 
            <glyph glyph-name="3" unicode="&#x33;" horiz-adv-x="504" d=" M504,189 Q504,88 426.5,31 Q349,-26 224,-26 Q150,-26 91,11.5 Q32,49 32,113 Q32,151 52.5,172 Q73,193 105,193 Q129,193 142.5,180 Q156,167 156,144 Q156,122 134,106.5 Q112,91 112,74 Q112,47 139.5,29 Q167,11 222,11 Q291,11 345.5,63.5 Q400,116 400,197 Q400,300 315,300 Q278,300 237,257 L214,292 Q310,353 338,381 Q383,426 383,485 Q383,582 275,582 Q234,582 209.5,563 Q185,544 180,528 Q180,524 189,506 Q198,488 198,468 Q198,410 143,410 Q114,410 101,429 Q88,448 88,472 Q88,525 145.5,571.5 Q203,618 301,618 Q352,618 390,604 Q428,590 448,568 Q468,546 477,525 Q486,504 486,485 Q486,378 331,342 L313,327 Q331,330 351,330 Q387,330 419.5,318.5 Q452,307 478,273.5 Q504,240 504,189"/> 
            <glyph glyph-name="4" unicode="&#x34;" horiz-adv-x="528" d=" M528,111 L501,111 Q499,172 471,194 Q468,196 464,198 Q460,200 456.5,201 Q453,202 447,203 Q441,204 437,204.5 Q433,205 425,205 Q417,205 412,205 Q407,205 396.5,205 Q386,205 380,205 L380,92 Q380,56 407,44 Q428,36 475,33 L475,0 L192,0 L192,33 Q250,36 260,40 Q288,49 288,86 L288,205 L24,205 L24,253 L337,627 L380,627 L380,251 Q412,251 422.5,251 Q433,251 447.5,254 Q462,257 470,264 Q497,286 499,340 L528,340 M288,251 L288,507 L74,251"/> 
            <glyph glyph-name="5" unicode="&#x35;" horiz-adv-x="490" d=" M490,612 Q469,571 430,543.5 Q391,516 347,505.5 Q303,495 276.5,492 Q250,489 226,489 Q182,489 170,491 L133,344 Q184,382 262,382 Q344,382 403.5,330 Q463,278 463,189 Q463,101 389.5,43.5 Q316,-14 220,-14 Q136,-14 85.5,20.5 Q35,55 35,105 Q35,140 55,154.5 Q75,169 98,169 Q140,169 140,125 Q140,110 133,94 Q126,78 126,61 Q128,46 154.5,33 Q181,20 219,20 Q259,20 288,42 Q317,64 332,99.5 Q347,135 353.5,170 Q360,205 360,240 Q360,298 324.5,321.5 Q289,345 244,345 Q207,345 170.5,326.5 Q134,308 122,271 L83,279 L159,615 L191,615 Q225,576 321,576 Q371,576 402,588.5 Q433,601 470,629"/> 
            <glyph glyph-name="6" unicode="&#x36;" horiz-adv-x="529" d=" M529,601 Q529,544 478,544 Q456,544 446,555 Q436,566 429,593 Q422,620 416,631 Q404,656 356,656 Q288,656 234,573 Q180,490 162,349 L166,347 Q198,388 236.5,406 Q275,424 331,424 Q401,424 455.5,365.5 Q510,307 510,217 Q510,187 503,156.5 Q496,126 478.5,94.5 Q461,63 435,39.5 Q409,16 367,1 Q325,-14 272,-14 Q181,-14 119.5,62.5 Q58,139 58,271 Q58,446 163.5,573 Q269,700 399,700 Q467,700 498,667.5 Q529,635 529,601 M403,217 Q403,376 279,376 Q230,376 193,331.5 Q156,287 156,197 Q156,115 192,67.5 Q228,20 275,20 Q314,20 341,39.5 Q368,59 380.5,91 Q393,123 398,153.5 Q403,184 403,217"/> 
            <glyph glyph-name="7" unicode="&#x37;" horiz-adv-x="518" d=" M518,574 Q451,477 418.5,420.5 Q386,364 352,276 Q318,187 300.5,121 Q283,55 278,-36 Q272,-122 212,-122 Q186,-122 173.5,-106 Q161,-90 161,-52 Q161,-18 194.5,66 Q228,150 272,235 Q331,348 429,505 L174,505 Q143,505 118.5,482 Q94,459 83.5,436 Q73,413 66,387 L36,392 L96,649 L124,649 L132,593 L518,593"/> 
            <glyph glyph-name="8" unicode="&#x38;" horiz-adv-x="498" d=" M498,178 Q498,92 425,38.5 Q352,-15 259,-15 Q172,-15 116,28 Q60,71 60,135 Q60,194 98.5,239.5 Q137,285 181,301 L181,306 Q128,332 104.5,362 Q81,392 81,447 Q81,521 144.5,572.5 Q208,624 286,624 Q373,624 423.5,584.5 Q474,545 474,478 Q474,441 447,401.5 Q420,362 372,341 L372,336 Q397,326 415,315.5 Q433,305 454,286.5 Q475,268 486.5,240.5 Q498,213 498,178 M409,486 Q409,534 376.5,561 Q344,588 287,588 Q232,588 198,559.5 Q164,531 164,487 Q164,430 207,398 Q250,366 336,352 Q409,381 409,486 M411,142 Q411,251 217,290 Q180,271 156.5,228.5 Q133,186 133,139 Q133,87 167,54.5 Q201,22 268,22 Q327,22 369,53.5 Q411,85 411,142"/> 
            <glyph glyph-name="9" unicode="&#x39;" horiz-adv-x="506" d=" M506,323 Q506,212 465.5,115.5 Q425,19 344,-42.5 Q263,-104 158,-104 Q97,-104 60.5,-72 Q24,-40 24,-5 Q24,56 78,56 Q100,56 110,42 Q120,28 126,1 Q132,-26 135,-34 Q148,-62 199,-62 Q282,-62 337.5,30 Q393,122 406,260 L399,261 Q340,180 237,180 Q163,180 110,235.5 Q57,291 57,387 Q57,477 116.5,547.5 Q176,618 281,618 Q324,618 362,603 Q400,588 433.5,556 Q467,524 486.5,464 Q506,404 506,323 M411,397 Q411,485 372,534.5 Q333,584 281,584 Q162,584 162,406 Q162,318 190.5,275.5 Q219,233 281,233 Q329,233 370,273 Q411,313 411,397"/> 
            <glyph glyph-name=":" unicode="&#x3A;" horiz-adv-x="233" d=" M233,415 Q233,359 213.5,340 Q194,321 166,321 Q138,321 118.5,340 Q99,359 99,387 Q99,415 118.5,434.5 Q138,454 166,454 Q194,454 233,415 M233,86 Q233,30 213.5,11 Q194,-8 166,-8 Q138,-8 118.5,11 Q99,30 99,58 Q99,86 118.5,105.5 Q138,125 166,125 Q194,125 233,86"/> 
            <glyph glyph-name=";" unicode="&#x3B;" horiz-adv-x="237" d=" M226,390 Q226,362 210,342 Q194,322 165,322 Q136,322 119.5,341 Q103,360 103,392 Q103,421 121,438 Q139,455 166,455 Q194,455 210,435.5 Q226,416 226,390 M237,18 Q237,-43 192,-94 Q147,-145 97,-172 L76,-139 Q180,-78 187,2 L160,2 Q124,2 107.5,20 Q91,38 91,65 Q91,88 108,106 Q125,124 153,124 Q237,124 237,18"/> 
            <glyph glyph-name="&lt;" unicode="&#x3C;" horiz-adv-x="507" d=" M507,32 L65,237 L65,283 L507,488 L507,431 L133,260 L507,89"/> 
            <glyph glyph-name="=" unicode="&#x3D;" horiz-adv-x="511" d=" M511,325 L69,325 L69,377 L511,377 M511,143 L69,143 L69,195 L511,195"/> 
            <glyph glyph-name="&gt;" unicode="&#x3E;" horiz-adv-x="515" d=" M515,237 L73,32 L73,89 L447,260 L73,431 L73,488 L515,283"/> 
            <glyph glyph-name="?" unicode="&#x3F;" horiz-adv-x="432" d=" M432,499 Q432,416 370.5,359 Q309,302 215,290 L212,184 L174,184 L174,366 Q208,371 233,378.5 Q258,386 284,401 Q310,416 324,443 Q338,470 338,507 Q338,662 218,662 Q168,662 151,641 Q151,640 153.5,635.5 Q156,631 157,627 Q158,623 159.5,613 Q161,603 161,589 Q161,566 141.5,553 Q122,540 104,540 Q79,540 66,556 Q53,572 53,597 Q53,637 99,668 Q145,699 220,699 Q322,699 377,643.5 Q432,588 432,499 M262,82 Q262,26 242.5,7.5 Q223,-11 195,-11 Q167,-11 147.5,7.5 Q128,26 128,54 Q128,82 147.5,101.5 Q167,121 195,121 Q223,121 262,82"/> 
            <glyph glyph-name="@" unicode="&#x40;" horiz-adv-x="985" d=" M985,114 Q940,-41 822.5,-128 Q705,-215 541,-215 Q458,-215 382,-189.5 Q306,-164 245.5,-116 Q185,-68 148.5,8.5 Q112,85 112,179 Q112,270 148,356 Q184,442 246.5,508.5 Q309,575 402.5,615.5 Q496,656 604,656 Q687,656 752.5,629 Q818,602 857.5,556 Q897,510 917,453.5 Q937,397 937,334 Q937,206 860.5,119.5 Q784,33 679,33 Q638,33 612.5,54 Q587,75 584,113 L581,114 Q530,35 469,35 Q421,35 389,65.5 Q357,96 357,166 Q357,212 382.5,270.5 Q408,329 463,377.5 Q518,426 585,426 Q612,426 631.5,410.5 Q651,395 656,366 L659,366 L679,420 L749,420 L659,162 Q649,135 649,110 Q649,62 690,62 Q772,62 837.5,140 Q903,218 903,340 Q903,459 823.5,540 Q744,621 602,621 Q528,621 457.5,591.5 Q387,562 330.5,508.5 Q274,455 239.5,370.5 Q205,286 205,184 Q205,18 299.5,-77 Q394,-172 541,-172 Q702,-172 808,-96 Q914,-20 961,122 M645,323 Q633,397 580,397 Q542,397 509,357 Q476,317 458.5,263 Q441,209 441,159 Q441,74 483,74 Q540,74 590,161"/> 
            <glyph glyph-name="A" unicode="&#x41;" horiz-adv-x="721" d=" M721,0 L406,0 L406,33 Q507,39 507,61 Q507,73 503,84 L443,237 L198,237 Q175,181 160,132 Q149,97 149,76 Q149,56 186,45.5 Q223,35 262,33 L262,0 L-23,0 L-23,33 Q19,35 47,51 Q84,73 104,119 Q137,200 334,694 L377,694 Q434,550 515,342.5 Q596,135 610,99 Q622,69 655,50 Q682,35 721,33 M426,280 L320,547 L215,280"/> 
            <glyph glyph-name="B" unicode="&#x42;" horiz-adv-x="622" d=" M622,181 Q622,121 583,78 Q544,35 494,17.5 Q444,0 392,0 L44,0 L44,33 Q94,36 118,45 Q149,57 149,93 L149,584 Q149,621 118,634 Q86,648 48,650 L48,683 L390,683 Q433,683 474.5,672 Q516,661 551,628.5 Q586,596 586,546 Q586,469 542,432.5 Q498,396 413,372 L413,363 Q444,359 476,349 Q508,339 543,319 Q578,299 600,263 Q622,227 622,181 M466,525 Q466,646 337,646 Q303,646 255,644 L255,380 L317,380 Q466,380 466,525 M499,203 Q499,266 457,304.5 Q415,343 340,343 Q291,343 255,341 L255,97 Q260,64 282,50.5 Q304,37 349,37 Q431,37 465,84.5 Q499,132 499,203"/> 
            <glyph glyph-name="C" unicode="&#x43;" horiz-adv-x="642" d=" M642,173 Q559,-15 369,-15 Q220,-15 129,80 Q38,175 38,333 Q38,488 138.5,592 Q239,696 390,696 Q430,696 474,680 Q518,664 541,642 L571,693 L612,693 L616,438 L582,438 Q550,538 498.5,597.5 Q447,657 359,657 Q275,657 216.5,577 Q158,497 158,341 Q158,212 228,129 Q298,46 398,46 Q483,46 529.5,82 Q576,118 609,189"/> 
            <glyph glyph-name="D" unicode="&#x44;" horiz-adv-x="743" d=" M743,337 Q743,253 709,186.5 Q675,120 618.5,80.5 Q562,41 493.5,20.5 Q425,0 350,0 L44,0 L44,33 Q95,33 118,42 Q149,54 149,91 L149,584 Q149,622 118,635 Q87,648 48,650 L48,683 L370,683 Q415,683 461.5,673.5 Q508,664 560,639.5 Q612,615 651.5,577.5 Q691,540 717,477.5 Q743,415 743,337 M620,338 Q620,475 543.5,560 Q467,645 342,645 Q299,645 255,643 L255,116 Q260,77 284.5,58 Q309,39 364,39 Q492,39 556,118.5 Q620,198 620,338"/> 
            <glyph glyph-name="E" unicode="&#x45;" horiz-adv-x="644" d=" M644,202 L631,0 L39,0 L39,33 Q98,36 118,44 Q149,56 149,93 L149,584 Q149,621 118,633 Q83,648 39,650 L39,683 L590,683 L590,518 L553,518 Q544,554 510,596 Q476,638 446,642 Q414,646 363,646 L255,646 L255,373 L335,373 Q361,373 379.5,379 Q398,385 403.5,389.5 Q409,394 419,404 Q429,414 438,441.5 Q447,469 450,491 L487,491 L487,212 L450,212 Q449,234 438.5,264 Q428,294 419,304 Q390,335 335,335 L255,335 L255,130 Q255,70 276,54.5 Q297,39 374,39 Q484,39 514,53 Q523,57 528,62 Q549,83 574.5,129.5 Q600,176 609,202"/> 
            <glyph glyph-name="F" unicode="&#x46;" horiz-adv-x="597" d=" M597,511 L560,511 Q551,548 517,593 Q483,638 453,642 Q421,646 370,646 L255,646 L255,370 L337,370 Q392,370 426,401 Q450,423 457,488 L494,488 L494,207 L457,207 Q455,230 445.5,260.5 Q436,291 426,301 Q395,332 337,332 L255,332 L255,96 Q255,60 286,47 Q313,36 362,33 L362,0 L39,0 L39,33 Q104,37 118,42 Q149,54 149,91 L149,584 Q149,621 118,633 Q83,648 39,650 L39,683 L597,683"/> 
            <glyph glyph-name="G" unicode="&#x47;" horiz-adv-x="754" d=" M754,273 Q750,272 733.5,270 Q717,268 704,266 Q691,264 683,260 Q653,246 653,208 L653,-19 L630,-23 L578,35 Q446,-15 345,-15 Q289,-15 235,7.5 Q181,30 137,71.5 Q93,113 65.5,179.5 Q38,246 38,326 Q38,482 146,589 Q254,696 415,696 Q457,696 504,679.5 Q551,663 575,642 L607,693 L646,693 L651,443 L618,443 Q550,656 376,656 Q285,656 222.5,570.5 Q160,485 160,333 Q160,201 225,114 Q290,27 384,27 Q463,27 506.5,59 Q550,91 555,143 L555,199 Q555,245 522,258 Q492,269 423,273 L423,307 L754,307"/> 
            <glyph glyph-name="H" unicode="&#x48;" horiz-adv-x="807" d=" M807,0 L497,0 L497,33 Q554,36 569,42 Q600,54 600,91 L600,335 L255,335 L255,96 Q255,60 286,47 Q314,35 358,33 L358,0 L48,0 L48,33 Q102,36 118,42 Q149,54 149,91 L149,584 Q149,620 118,633 Q81,648 48,650 L48,683 L358,683 L358,650 Q315,648 286,638 Q255,628 255,589 L255,377 L600,377 L600,584 Q600,620 569,633 Q533,648 497,650 L497,683 L807,683 L807,650 Q766,648 737,638 Q706,628 706,589 L706,96 Q706,62 737,47 Q760,36 807,33"/> 
            <glyph glyph-name="I" unicode="&#x49;" horiz-adv-x="361" d=" M361,0 L47,0 L47,33 Q105,36 120,42 Q151,54 151,90 L151,585 Q151,621 120,633 Q81,648 47,650 L47,683 L361,683 L361,650 Q317,648 288,638 Q257,628 257,590 L257,95 Q257,60 288,47 Q316,36 361,33"/> 
            <glyph glyph-name="J" unicode="&#x4A;" horiz-adv-x="469" d=" M469,650 Q421,647 393,638 Q362,628 362,589 L362,186 Q362,158 347.5,124 Q333,90 306.5,58 Q280,26 235.5,4.5 Q191,-17 139,-17 Q67,-17 34,12 Q1,41 1,77 Q1,107 20.5,128 Q40,149 70,149 Q100,149 117.5,131 Q135,113 135,85 Q135,45 94,22 L94,17 Q102,15 112,15 Q151,15 178,27 Q205,39 220,56.5 Q235,74 243.5,103 Q252,132 254,157 Q256,182 256,219 L256,584 Q256,619 225,633 Q193,648 144,650 L144,683 L469,683"/> 
            <glyph glyph-name="K" unicode="&#x4B;" horiz-adv-x="772" d=" M772,0 L406,0 L406,33 Q502,38 502,66 Q502,104 271,335 L255,335 L255,96 Q255,60 286,47 Q314,35 358,33 L358,0 L48,0 L48,33 Q102,36 118,42 Q149,54 149,91 L149,584 Q149,620 118,633 Q81,648 48,650 L48,683 L358,683 L358,650 Q315,648 286,638 Q255,628 255,589 L255,354 L261,354 Q366,439 438,515 Q510,591 510,625 Q510,646 431,650 L431,683 L719,683 L719,650 Q718,650 709.5,649.5 Q701,649 695,649 Q689,649 678,647.5 Q667,646 658,644.5 Q649,643 637.5,640 Q626,637 617,633 Q608,629 598.5,622.5 Q589,616 582,609 Q567,593 536,559.5 Q505,526 491,511 Q477,496 453,471.5 Q429,447 407.5,427 Q386,407 361,385 Q519,221 609,113 Q646,68 700,46 Q723,36 772,33"/> 
            <glyph glyph-name="L" unicode="&#x4C;" horiz-adv-x="632" d=" M632,204 L617,0 L46,0 L46,33 Q100,36 118,43 Q149,55 149,93 L149,582 Q149,618 118,632 Q82,648 46,650 L46,683 L359,683 L359,650 Q318,648 286,637 Q255,627 255,587 L255,129 Q255,66 274,51.5 Q293,37 374,37 Q486,37 511,63 Q532,85 561.5,132.5 Q591,180 598,204"/> 
            <glyph glyph-name="M" unicode="&#x4D;" horiz-adv-x="923" d=" M923,0 L593,0 L593,33 Q664,37 680,45 Q713,62 713,96 L713,590 L458,11 L434,11 Q420,58 381,150 L192,604 L192,200 Q192,91 226,63 Q238,53 273,43.5 Q308,34 324,33 L324,0 L19,0 L19,33 Q90,41 112,57 Q145,80 145,195 L145,541 Q145,598 114,623 Q83,648 24,650 L24,683 L266,683 L482,172 L668,598 Q687,643 691,683 L922,683 L922,650 Q876,647 848,638 Q817,628 817,589 L817,96 Q817,62 848,47 Q870,36 923,33"/> 
            <glyph glyph-name="N" unicode="&#x4E;" horiz-adv-x="802" d=" M802,650 Q787,649 754,641 Q721,633 710,626 Q691,614 684,582.5 Q677,551 677,492 L677,-7 L635,-7 L192,551 L192,201 Q192,92 226,64 Q238,55 275,44.5 Q312,34 329,33 L329,0 L19,0 L19,33 Q33,34 68.5,43.5 Q104,53 112,59 Q145,82 145,196 L145,528 Q145,581 113,607 Q95,621 60.5,635 Q26,649 6,650 L6,683 L217,683 L630,163 L630,486 Q630,599 596,621 Q582,630 547,639.5 Q512,649 494,650 L494,683 L802,683"/> 
            <glyph glyph-name="O" unicode="&#x4F;" horiz-adv-x="738" d=" M738,346 Q738,178 634,80 Q533,-16 385,-16 Q246,-16 146,78 Q39,179 39,334 Q39,498 136,595 Q238,699 389,699 Q536,699 643,595 Q688,550 713,484.5 Q738,419 738,346 M617,343 Q617,405 604.5,459 Q592,513 566,558.5 Q540,604 494.5,630.5 Q449,657 389,657 Q282,657 221,573 Q160,489 160,339 Q160,202 218.5,114 Q277,26 389,26 Q501,26 559,113.5 Q617,201 617,343"/> 
            <glyph glyph-name="P" unicode="&#x50;" horiz-adv-x="591" d=" M591,519 Q591,417 515,362.5 Q439,308 333,308 L255,308 L255,93 Q255,55 286,43 Q306,35 365,33 L365,0 L46,0 L46,33 Q100,36 118,43 Q149,55 149,93 L149,586 Q149,627 118,637 Q85,648 42,650 L42,683 L377,683 Q468,683 529.5,638.5 Q591,594 591,519 M467,494 Q467,559 434,602 Q401,645 323,645 L255,645 L255,348 L304,348 Q355,348 390,363.5 Q425,379 440,404 Q455,429 461,450.5 Q467,472 467,494"/> 
            <glyph glyph-name="Q" unicode="&#x51;" horiz-adv-x="858" d=" M858,-16 Q828,-61 772,-104 Q716,-147 650,-147 Q587,-147 535.5,-113 Q484,-79 463,-2 Q421,-15 385,-15 Q245,-15 146,78 Q39,179 39,334 Q39,498 136,595 Q238,699 389,699 Q536,699 643,595 Q688,550 713,484.5 Q738,419 738,346 Q738,149 565,46 Q580,-22 623.5,-49 Q667,-76 718,-76 Q749,-76 779.5,-51 Q810,-26 830,6 M617,343 Q617,405 604.5,459 Q592,513 566,558.5 Q540,604 494.5,630.5 Q449,657 389,657 Q282,657 221,573 Q160,489 160,339 Q160,184 222,104 Q268,219 388,219 Q445,219 489,182 Q533,145 551,90 Q617,167 617,343 M457,30 Q451,104 424.5,135.5 Q398,167 350,167 Q327,167 297,147 Q267,127 252,79 Q304,23 389,23 Q413,23 457,30"/> 
            <glyph glyph-name="R" unicode="&#x52;" horiz-adv-x="744" d=" M744,0 L525,0 Q502,113 468,198 Q446,253 401.5,290 Q357,327 306,327 L255,327 L255,93 Q255,55 286,43 Q304,36 362,33 L362,0 L46,0 L46,33 Q100,36 118,43 Q149,55 149,93 L149,587 Q149,627 118,637 Q86,648 46,650 L46,683 L394,683 Q479,683 541,643.5 Q603,604 603,527 Q603,488 589.5,459 Q576,430 547,410 Q518,390 488,378 Q458,366 412,353 L412,343 Q540,313 579,216 Q586,198 595,172.5 Q604,147 611.5,124 Q619,101 620,98 Q627,75 640,62 Q653,49 660.5,46.5 Q668,44 683,41 Q715,35 744,33 M480,517 Q480,582 441.5,613.5 Q403,645 342,645 L255,645 L255,366 L319,366 Q388,366 434,407.5 Q480,449 480,517"/> 
            <glyph glyph-name="S" unicode="&#x53;" horiz-adv-x="521" d=" M521,195 Q521,105 454.5,46 Q388,-13 290,-13 Q184,-13 121,37 L86,-10 L52,-10 L45,234 L78,234 Q95,189 113,156 Q131,123 157.5,92 Q184,61 220,44.5 Q256,28 301,28 Q424,28 424,148 Q424,189 399.5,222.5 Q375,256 331,274 Q218,319 188,333 Q65,387 65,511 Q65,590 124.5,643 Q184,696 270,696 Q308,696 350,681.5 Q392,667 419,646 L453,693 L487,693 L492,456 L460,456 Q442,505 427.5,535.5 Q413,566 389.5,596.5 Q366,627 332.5,641 Q299,655 254,655 Q236,655 215,648 Q194,641 174.5,617.5 Q155,594 155,559 Q155,517 175.5,489.5 Q196,462 239,438 Q267,423 313,405 Q359,387 375,380 Q450,345 485.5,306.5 Q521,268 521,195"/> 
            <glyph glyph-name="T" unicode="&#x54;" horiz-adv-x="635" d=" M635,499 L601,499 Q591,538 557,588 Q523,638 493,642 Q461,646 412,646 L375,646 L375,99 Q375,62 406,49 Q438,36 488,33 L488,0 L156,0 L156,33 Q218,36 238,44 Q269,56 269,94 L269,646 L232,646 Q183,646 151,642 Q121,638 87,588 Q53,538 43,499 L9,499 L9,683 L635,683"/> 
            <glyph glyph-name="U" unicode="&#x55;" horiz-adv-x="789" d=" M789,650 Q771,649 741,642.5 Q711,636 697,627 Q664,606 664,494 L664,200 Q664,142 638.5,98 Q613,54 572.5,30.5 Q532,7 489,-4.5 Q446,-16 404,-16 Q278,-16 207,41 Q136,98 136,180 L136,584 Q136,618 105,634 Q78,647 35,650 L35,683 L346,683 L346,650 Q303,648 274,638 Q243,628 243,589 L243,210 Q243,186 246.5,164.5 Q250,143 262,118.5 Q274,94 293,77 Q312,60 345.5,48.5 Q379,37 424,37 Q480,37 520.5,54.5 Q561,72 580.5,100.5 Q600,129 608,156.5 Q616,184 616,214 L616,488 Q616,600 582,622 Q565,633 532.5,641 Q500,649 480,650 L480,683 L789,683"/> 
            <glyph glyph-name="V" unicode="&#x56;" horiz-adv-x="709" d=" M709,650 Q675,648 644,631 Q612,613 592,568 Q436,207 347,-8 L305,-8 Q236,183 91,584 Q80,613 46,633 Q19,648 -20,650 L-20,683 L290,683 L290,650 Q193,644 193,624 Q193,612 198,599 Q277,378 364,143 Q513,496 522,518 Q545,576 545,607 Q545,642 430,650 L430,683 L709,683"/> 
            <glyph glyph-name="W" unicode="&#x57;" horiz-adv-x="1022" d=" M1022,650 Q988,648 957,631 Q921,610 905,568 Q855,434 700,-8 L659,-8 Q582,248 500,501 L314,-8 L271,-8 Q232,120 168,329 Q104,538 90,584 Q81,615 50,633 Q26,648 -15,650 L-15,683 L291,683 L291,650 Q192,644 192,624 Q192,611 196,599 Q199,590 219.5,522 Q240,454 270,357 Q300,260 331,161 L478,561 Q478,614 438,634 Q413,647 356,650 L356,683 L668,683 L668,650 Q572,645 572,624 Q572,613 576,599 Q595,539 717,165 Q795,384 835,517 Q855,586 855,607 Q855,643 748,650 L748,683 L1022,683"/> 
            <glyph glyph-name="X" unicode="&#x58;" horiz-adv-x="768" d=" M768,0 L403,0 L403,33 Q407,33 421.5,33.5 Q436,34 442,34.5 Q448,35 460.5,36.5 Q473,38 479,40 Q485,42 492.5,45.5 Q500,49 503,54 Q506,59 506,66 Q506,75 497.5,92 Q489,109 469.5,137.5 Q450,166 436.5,185 Q423,204 393.5,243.5 Q364,283 355,296 Q191,97 191,66 Q191,61 192.5,56.5 Q194,52 198,49 Q202,46 205.5,43.5 Q209,41 215.5,39.5 Q222,38 227,37 Q232,36 240.5,35 Q249,34 254,34 Q259,34 268.5,33.5 Q278,33 282,33 L282,0 L-3,0 L-3,33 Q43,36 68,46 Q114,66 153,113 Q187,154 244,227 Q301,300 326,331 Q196,512 150,572 Q117,615 74,637 Q54,647 -1,650 L-1,683 L364,683 L364,650 Q360,650 350,649.5 Q340,649 334.5,648.5 Q329,648 319.5,647.5 Q310,647 304.5,646 Q299,645 291,643.5 Q283,642 279,639.5 Q275,637 270.5,634 Q266,631 264,626.5 Q262,622 262,617 Q262,588 397,406 Q544,585 544,617 Q544,627 536.5,634 Q529,641 512.5,644 Q496,647 485.5,648 Q475,649 453,650 L453,683 L738,683 L738,650 Q692,647 667,637 Q638,624 621,610.5 Q604,597 582,570 Q545,524 425,373 Q592,144 616,113 Q644,77 693,44 Q703,37 768,33"/> 
            <glyph glyph-name="Y" unicode="&#x59;" horiz-adv-x="661" d=" M661,650 Q629,647 603,631 Q582,619 573,611 Q564,603 545,580 Q492,513 393,334 Q358,271 358,222 L358,99 Q358,62 389,49 Q421,36 471,33 L471,0 L139,0 L139,33 Q201,36 221,44 Q252,56 252,94 L252,258 Q252,281 226,333 Q170,443 99,566 Q73,611 33,634 Q8,648 -31,650 L-31,683 L291,683 L291,650 Q287,650 274.5,649.5 Q262,649 255,648.5 Q248,648 236.5,647 Q225,646 218.5,644 Q212,642 204.5,640 Q197,638 193.5,634.5 Q190,631 190,626 Q190,608 343,336 Q503,587 503,613 Q503,633 476,640 Q449,647 401,650 L401,683 L661,683"/> 
            <glyph glyph-name="Z" unicode="&#x5A;" horiz-adv-x="619" d=" M619,215 L596,0 L5,0 L5,12 L467,646 L297,646 Q241,646 216,641 Q179,633 138.5,583.5 Q98,534 80,489 L46,489 L67,683 L606,683 L606,671 L144,37 L336,37 Q456,37 483,63 Q513,91 542,135.5 Q571,180 585,215"/> 
            <glyph glyph-name="[" unicode="&#x5B;" horiz-adv-x="415" d=" M415,-136 L80,-136 L80,713 L415,713 L415,669 L167,669 L167,-92 L415,-92"/> 
            <glyph glyph-name="\" unicode="&#x5C;" horiz-adv-x="398" d=" M398,-199 L348,-212 L35,739 L86,752"/> 
            <glyph glyph-name="]" unicode="&#x5D;" horiz-adv-x="395" d=" M395,-136 L60,-136 L60,-92 L308,-92 L308,669 L60,669 L60,713 L395,713"/> 
            <glyph glyph-name="^" unicode="&#x5E;" horiz-adv-x="851" d=" M851,593 Q851,533 811,499 Q771,465 700,465 Q742,443 763.5,406.5 Q785,370 785,301 Q785,262 771.5,220 Q758,178 725.5,135 Q693,92 647,58.5 Q601,25 528.5,3.5 Q456,-18 368,-18 Q239,-18 149,50 Q59,118 59,217 Q59,248 67,272 Q75,296 92.5,314 Q110,332 123.5,342 Q137,352 163,368 Q131,393 114,421 Q97,449 97,496 Q97,545 142.5,590 Q188,635 250,635 Q322,635 368,602.5 Q414,570 429,513 L407,500 Q380,543 354,561.5 Q328,580 288,580 Q238,580 206,546.5 Q174,513 174,461 Q174,402 192,385 Q234,400 279,400 Q309,400 326.5,387.5 Q344,375 344,356 Q344,339 332.5,327.5 Q321,316 299,316 Q277,316 257,322 Q237,328 226.5,333.5 Q216,339 195,352 Q150,333 137,302 Q130,286 130,266 Q130,185 218.5,124 Q307,63 454,63 Q586,63 664.5,136 Q743,209 743,306 Q743,389 700,429 Q657,469 594,469 Q548,469 514,444 Q480,419 480,378 Q480,344 490,328 Q500,353 512,365 Q524,377 546,377 Q570,377 582,362 Q594,347 594,330 Q594,274 533,274 Q447,274 447,390 Q447,428 463.5,456.5 Q480,485 507.5,499.5 Q535,514 563,520.5 Q591,527 620,527 Q633,527 675.5,524.5 Q718,522 729,522 Q768,522 794.5,547 Q821,572 821,600 Q821,628 806,636 Q791,596 763,596 Q719,596 719,641 Q719,665 734,681.5 Q749,698 779,698 Q806,698 823.5,677.5 Q841,657 846,635 Q851,613 851,593"/> 
            <glyph glyph-name="_" unicode="&#x5F;" horiz-adv-x="605" d=" M605,-157 L-5,-157 L-5,-108 L605,-108"/> 
            <glyph glyph-name="`" unicode="&#x60;" horiz-adv-x="358" d=" M358,546 L344,534 Q298,571 251.5,606 Q205,641 196,648 Q176,664 168,675 Q160,686 160,703 Q160,718 171.5,729.5 Q183,741 200,741 Q236,741 261,698 Q310,616 358,546"/> 
            <glyph glyph-name="a" unicode="&#x61;" horiz-adv-x="507" d=" M507,119 Q500,-10 397,-10 Q332,-10 309,57 L306,57 Q247,-12 155,-12 Q103,-12 71,18.5 Q39,49 39,98 Q39,156 65,186 Q91,216 137,233 Q149,238 216,261 Q283,284 308,297 L308,342 Q308,353 305.5,366 Q303,379 296,398 Q289,417 269.5,429.5 Q250,442 221,442 Q178,442 156,418 Q156,411 160.5,389.5 Q165,368 165,356 Q165,339 149,325.5 Q133,312 107,312 Q84,312 73,327.5 Q62,343 62,366 Q62,410 114.5,442.5 Q167,475 227,475 Q313,475 356.5,445 Q400,415 400,323 Q400,271 397.5,186.5 Q395,102 395,93 Q395,79 406,61.5 Q417,44 439,44 Q473,44 475,119 M309,257 Q266,244 239,233 Q212,222 186,205.5 Q160,189 148,166.5 Q136,144 136,115 Q136,40 205,40 Q240,40 261.5,53 Q283,66 305,91"/> 
            <glyph glyph-name="b" unicode="&#x62;" horiz-adv-x="521" d=" M521,229 Q521,126 453,56 Q385,-14 294,-14 Q224,-14 146,30 L109,-26 L80,-19 Q84,34 84,166 L84,634 Q84,650 76.5,667 Q69,684 57,691 Q40,702 -9,705 L-9,735 L168,746 L175,739 L175,414 L178,413 Q235,475 313,475 Q401,475 461,407 Q521,339 521,229 M419,228 Q419,309 384.5,366 Q350,423 279,423 Q216,423 175,377 L175,106 Q186,74 213.5,47.5 Q241,21 286,21 Q345,21 382,75.5 Q419,130 419,228"/> 
            <glyph glyph-name="c" unicode="&#x63;" horiz-adv-x="449" d=" M449,107 Q419,55 367.5,21.5 Q316,-12 257,-12 Q149,-12 91.5,55.5 Q34,123 34,233 Q34,331 98,403 Q162,475 263,475 Q339,475 381,441 Q423,407 423,357 Q423,293 367,293 Q347,293 329,305 Q311,317 311,343 Q311,367 318,382 Q325,397 325,404 Q319,441 261,441 Q209,441 172,391 Q135,341 135,237 Q135,151 175,95 Q215,39 281,39 Q327,39 358.5,60 Q390,81 418,127"/> 
            <glyph glyph-name="d" unicode="&#x64;" horiz-adv-x="560" d=" M560,9 L392,-2 L385,5 L385,48 L381,49 Q322,-13 248,-13 Q158,-13 96,56 Q34,125 34,237 Q34,339 103,407 Q172,475 263,475 Q326,475 384,446 L384,628 Q380,671 358,686 Q335,701 270,706 L270,735 L468,746 L475,739 L475,98 Q475,67 501,49 Q512,42 560,39 M384,88 L384,360 Q374,391 345.5,415.5 Q317,440 271,440 Q212,440 174,382 Q136,324 136,226 Q136,146 172.5,91.5 Q209,37 282,37 Q337,37 384,88"/> 
            <glyph glyph-name="e" unicode="&#x65;" horiz-adv-x="452" d=" M452,109 Q424,54 373.5,21 Q323,-12 260,-12 Q150,-12 92,57.5 Q34,127 34,235 Q34,332 93.5,403.5 Q153,475 250,475 Q348,475 394.5,420 Q441,365 441,279 L441,253 L132,253 Q132,39 288,39 Q336,39 364.5,60 Q393,81 421,128 M345,290 Q345,441 249,441 Q200,441 167,399 Q134,357 132,288"/> 
            <glyph glyph-name="f" unicode="&#x66;" horiz-adv-x="427" d=" M427,659 Q427,642 412,624.5 Q397,607 373,607 Q352,607 333.5,618 Q315,629 315,652 Q315,660 318,680 Q321,700 321,707 Q314,714 297,714 Q248,714 225,668.5 Q202,623 198,511 Q198,504 197.5,486.5 Q197,469 197,460 L321,460 L321,416 L197,416 L197,86 Q197,52 224,42 Q245,33 289,31 L289,0 L35,0 L35,31 Q64,33 79,37 Q106,46 106,81 L106,416 L6,416 L6,460 L106,460 L106,481 Q106,614 174,686 Q231,747 321,747 Q373,747 400,721 Q427,695 427,659"/> 
            <glyph glyph-name="g" unicode="&#x67;" horiz-adv-x="513" d=" M513,426 Q513,404 502,390.5 Q491,377 471,377 Q447,377 437.5,391 Q428,405 428,437 Q391,437 366,419 L366,416 Q404,375 404,321 Q404,258 352,217 Q300,176 235,176 L177,176 Q142,163 142,133 Q142,111 157.5,100 Q173,89 191.5,86.5 Q210,84 238,83 Q245,83 249,83 Q266,82 311,79.5 Q356,77 361,77 Q410,75 449.5,37.5 Q489,0 489,-60 Q489,-134 425.5,-180 Q362,-226 238,-226 Q20,-226 20,-101 Q20,-55 56,-24.5 Q92,6 165,8 L165,15 Q146,21 133.5,26 Q121,31 105,41 Q89,51 81,66.5 Q73,82 73,103 Q73,157 151,188 L151,194 Q49,241 49,326 Q49,394 100,434.5 Q151,475 228,475 Q258,475 289.5,467.5 Q321,460 340.5,452.5 Q360,445 363,445 Q411,475 466,475 Q484,475 498.5,460.5 Q513,446 513,426 M311,323 Q311,375 290,408.5 Q269,442 225,442 Q143,442 143,326 Q143,275 166,242 Q189,209 226,209 Q268,209 289.5,241.5 Q311,274 311,323 M409,-79 Q409,-25 358,-10 Q307,-3 203,-3 Q150,-13 127.5,-37 Q105,-61 105,-105 Q105,-140 141.5,-165.5 Q178,-191 255,-191 Q409,-191 409,-79"/> 
            <glyph glyph-name="h" unicode="&#x68;" horiz-adv-x="557" d=" M557,0 L321,0 L321,31 Q353,33 368,37 Q395,46 395,81 L395,312 Q395,361 370.5,390 Q346,419 312,419 Q264,419 231.5,395.5 Q199,372 187,348 L187,86 Q187,54 214,42 Q234,32 261,31 L261,0 L25,0 L25,31 Q54,33 69,37 Q96,46 96,81 L96,634 Q92,676 69,692 Q54,702 2,705 L2,735 L180,746 L187,739 L187,393 L189,393 Q237,439 263,453 Q302,475 353,475 Q421,475 454,433 Q487,391 487,317 L487,85 Q487,53 513,41 Q533,32 557,31"/> 
            <glyph glyph-name="i" unicode="&#x69;" horiz-adv-x="268" d=" M206,658 Q206,631 188,612 Q170,593 143,593 Q118,593 100,611 Q82,629 82,654 Q82,680 100,698.5 Q118,717 143,717 Q170,717 188,699.5 Q206,682 206,658 M268,0 L35,0 L35,31 Q64,33 79,37 Q106,46 106,81 L106,361 Q103,395 79,411 Q58,425 20,427 L20,457 L190,468 L197,461 L197,87 Q197,52 224,42 Q249,32 268,31"/> 
            <glyph glyph-name="j" unicode="&#x6A;" horiz-adv-x="216" d=" M216,658 Q216,631 198,612 Q180,593 153,593 Q128,593 110,611 Q92,629 92,654 Q92,680 110,698.5 Q128,717 153,717 Q180,717 198,699.5 Q216,682 216,658 M210,41 Q210,-98 147,-164 Q88,-226 16,-226 Q-32,-226 -59.5,-205 Q-87,-184 -87,-151 Q-87,-132 -71,-115 Q-55,-98 -31,-98 Q-8,-98 9,-110.5 Q26,-123 26,-147 Q26,-158 22,-173 Q18,-188 18,-189 Q30,-193 38,-193 Q83,-193 100.5,-147 Q118,-101 118,16 L118,357 Q114,394 91,410 Q83,415 54,421 Q25,427 9,428 L9,457 L203,468 L210,461"/> 
            <glyph glyph-name="k" unicode="&#x6B;" horiz-adv-x="548" d=" M548,0 L389,0 Q368,72 321,145 Q274,218 230,218 Q204,218 187,203 L187,86 Q187,52 214,42 Q238,32 261,31 L261,0 L25,0 L25,31 Q54,33 69,37 Q96,46 96,81 L96,633 Q96,672 69,691 Q53,702 2,705 L2,735 L180,746 L187,739 L187,234 Q287,328 339,383 Q352,396 352,405 Q352,425 290,432 L290,462 L500,462 L500,433 Q423,411 379,373 Q325,327 287,289 Q307,279 324.5,267.5 Q342,256 358,239 Q374,222 384,211 Q394,200 408,176 Q422,152 427,143 Q432,134 447.5,104.5 Q463,75 466,69 Q476,51 509,37 Q526,30 548,30"/> 
            <glyph glyph-name="l" unicode="&#x6C;" horiz-adv-x="259" d=" M259,0 L26,0 L26,31 Q55,33 70,37 Q97,46 97,81 L97,631 Q97,669 70,688 Q49,702 0,705 L0,735 L181,746 L188,739 L188,87 Q188,54 215,42 Q236,32 259,31"/> 
            <glyph glyph-name="m" unicode="&#x6D;" horiz-adv-x="859" d=" M859,0 L624,0 L624,31 Q651,33 667,37 Q694,46 694,81 L694,313 Q694,363 670.5,391 Q647,419 613,419 Q531,419 491,349 L491,86 Q491,53 517,41 Q537,32 561,31 L561,0 L331,0 L331,31 Q356,32 372,37 Q399,46 399,81 L399,313 Q399,363 375.5,391 Q352,419 318,419 Q237,419 196,348 L196,87 Q196,54 223,42 Q244,32 268,31 L268,0 L34,0 L34,31 Q63,33 78,37 Q105,46 105,81 L105,363 Q102,396 78,412 Q58,425 27,427 L27,457 L188,468 L195,461 L195,392 L198,392 Q201,395 212.5,406.5 Q224,418 228,421.5 Q232,425 243,434.5 Q254,444 261,448 Q268,452 280.5,458.5 Q293,465 303.5,467.5 Q314,470 328.5,472.5 Q343,475 359,475 Q404,475 438,451 Q472,427 488,389 Q491,392 503,403.5 Q515,415 519.5,419 Q524,423 535.5,433 Q547,443 554,447 Q561,451 574,458 Q587,465 598,467.5 Q609,470 623.5,472.5 Q638,475 654,475 Q721,475 753.5,431 Q786,387 786,312 L786,86 Q786,53 812,41 Q832,33 859,31"/> 
            <glyph glyph-name="n" unicode="&#x6E;" horiz-adv-x="566" d=" M566,0 L330,0 L330,31 Q362,33 377,37 Q404,46 404,81 L404,312 Q404,361 379.5,390 Q355,419 321,419 Q273,419 240.5,395.5 Q208,372 196,348 L196,86 Q196,54 223,42 Q243,33 270,31 L270,0 L34,0 L34,31 Q63,33 78,37 Q105,46 105,81 L105,361 Q101,398 78,414 Q61,425 29,427 L29,457 L189,468 L196,461 L196,393 L198,393 Q199,394 210,405 Q221,416 224,418.5 Q227,421 237.5,430.5 Q248,440 253.5,443 Q259,446 269.5,453 Q280,460 288.5,462.5 Q297,465 309,468.5 Q321,472 333.5,473.5 Q346,475 360,475 Q428,475 462,433 Q496,391 496,317 L496,85 Q496,53 522,41 Q542,32 566,31"/> 
            <glyph glyph-name="o" unicode="&#x6F;" horiz-adv-x="494" d=" M494,236 Q494,129 431,57.5 Q368,-14 259,-14 Q165,-14 99,53 Q33,120 33,229 Q33,338 97,406.5 Q161,475 266,475 Q369,475 431.5,407.5 Q494,340 494,236 M393,235 Q393,322 362.5,381.5 Q332,441 265,441 Q228,441 201,422.5 Q174,404 160,373 Q146,342 140,308.5 Q134,275 134,237 Q134,142 166.5,81 Q199,20 265,20 Q328,20 360.5,80.5 Q393,141 393,235"/> 
            <glyph glyph-name="p" unicode="&#x70;" horiz-adv-x="533" d=" M533,227 Q533,125 465,56.5 Q397,-12 306,-12 Q233,-12 191,19 L187,19 L187,-135 Q187,-170 215,-181 Q245,-193 284,-195 L284,-226 L15,-226 L15,-195 Q49,-193 70,-187 Q96,-179 96,-141 L96,363 Q93,397 70,413 Q52,425 15,427 L15,457 L179,468 L186,462 L186,410 L190,409 Q251,475 325,475 Q413,475 473,406 Q533,337 533,227 M431,228 Q431,309 396.5,366 Q362,423 291,423 Q230,423 187,373 L187,98 Q197,69 225,45.5 Q253,22 298,22 Q357,22 394,76 Q431,130 431,228"/> 
            <glyph glyph-name="q" unicode="&#x71;" horiz-adv-x="561" d=" M561,-226 L301,-226 L301,-195 Q336,-193 357,-187 Q384,-179 384,-141 L384,45 L381,46 Q326,-12 248,-12 Q158,-12 96,57 Q34,126 34,237 Q34,339 103.5,407 Q173,475 265,475 Q289,475 310.5,471.5 Q332,468 348.5,461.5 Q365,455 375.5,449.5 Q386,444 398.5,436 Q411,428 414,427 L457,489 L483,485 Q475,325 475,310 L475,-133 Q475,-169 502,-181 Q525,-191 561,-195 M384,84 L384,362 Q374,393 346,416.5 Q318,440 271,440 Q212,440 174,382 Q136,324 136,226 Q136,146 172,92 Q208,38 282,38 Q340,38 384,84"/> 
            <glyph glyph-name="r" unicode="&#x72;" horiz-adv-x="398" d=" M398,407 Q398,378 382.5,358.5 Q367,339 342,339 Q291,339 291,387 Q291,391 292.5,397.5 Q294,404 296,411 Q298,418 298,419 Q264,419 236.5,396 Q209,373 196,350 L196,86 Q196,52 223,42 Q244,33 288,31 L288,0 L34,0 L34,31 Q63,33 78,37 Q105,46 105,81 L105,361 Q101,398 78,414 Q61,425 29,427 L29,457 L189,468 L196,461 L196,393 L198,393 Q261,473 331,473 Q359,473 378.5,454 Q398,435 398,407"/> 
            <glyph glyph-name="s" unicode="&#x73;" horiz-adv-x="373" d=" M373,132 Q373,66 324.5,26 Q276,-14 203,-14 Q168,-14 133,-1 Q98,12 84,27 L74,-5 L40,-5 L35,157 L67,157 Q77,110 115,65.5 Q153,21 207,21 Q301,21 301,101 Q301,139 275,158.5 Q249,178 185,197 Q47,238 47,341 Q47,399 88.5,437 Q130,475 199,475 Q266,475 303,448 L311,476 L343,476 L350,331 L318,331 Q310,378 279,409 Q248,440 198,440 Q160,440 139.5,422 Q119,404 119,375 Q119,336 142.5,319.5 Q166,303 235,280 Q303,258 338,224 Q373,190 373,132"/> 
            <glyph glyph-name="t" unicode="&#x74;" horiz-adv-x="345" d=" M345,124 Q339,65 306.5,27.5 Q274,-10 217,-10 Q95,-10 95,127 L95,415 L2,415 L2,460 L97,460 L97,605 L184,605 L184,460 L319,460 L319,415 L185,415 L185,140 Q185,94 201,71 Q217,48 256,48 Q276,48 288.5,60 Q301,72 305,86.5 Q309,101 311,124"/> 
            <glyph glyph-name="u" unicode="&#x75;" horiz-adv-x="549" d=" M549,9 L392,-2 L385,5 L385,66 L382,66 Q354,38 341,26.5 Q328,15 295,1.5 Q262,-12 222,-12 Q155,-12 123.5,32 Q92,76 92,151 L92,363 Q92,395 66,413 Q49,424 16,426 L16,456 L177,468 L184,461 L184,144 Q184,94 206.5,66.5 Q229,39 263,39 Q341,39 384,108 L384,366 Q381,400 358,416 Q346,424 293,426 L293,456 L468,468 L475,461 L475,97 Q478,65 501,49 Q513,41 549,39"/> 
            <glyph glyph-name="v" unicode="&#x76;" horiz-adv-x="491" d=" M491,433 Q436,423 416,377 Q379,292 299,101 Q278,52 260,-7 L222,-7 Q181,97 63,382 Q45,423 -11,431 L-11,462 L211,462 L211,429 Q154,427 154,408 Q154,404 161,387 Q169,364 185.5,323 Q202,282 226.5,220.5 Q251,159 266,121 L272,121 Q337,277 373,368 Q378,380 378,396 Q378,410 354.5,420 Q331,430 311,432 L311,462 L491,462"/> 
            <glyph glyph-name="w" unicode="&#x77;" horiz-adv-x="760" d=" M760,432 Q737,430 713,413 Q689,396 680,372 Q662,327 572,99 Q551,47 534,-7 L503,-7 Q460,111 381,315 Q364,277 334.5,198 Q305,119 297,99 Q274,43 258,-7 L225,-7 Q132,227 67,381 Q59,400 37.5,414.5 Q16,429 -6,431 L-6,462 L210,462 L210,429 Q157,427 157,408 Q157,404 164,387 Q184,336 268,124 L272,124 Q341,302 362,360 Q361,362 359,366.5 Q357,371 354.5,376 Q352,381 348,388 Q327,426 282,431 L282,462 L489,462 L489,430 Q437,428 437,410 Q437,404 444,387 Q488,269 544,123 L548,123 Q601,261 639,372 Q644,387 644,398 Q644,414 620.5,423 Q597,432 580,432 L580,462 L760,462"/> 
            <glyph glyph-name="x" unicode="&#x78;" horiz-adv-x="474" d=" M474,0 L256,0 L256,31 Q310,35 310,48 Q310,52 296,77 Q290,87 262.5,127.5 Q235,168 216,197 Q151,112 129,79 Q119,66 119,56 Q119,35 178,30 L178,0 L2,0 L2,29 Q67,53 92,85 Q97,91 115,113.5 Q133,136 155,164 Q177,192 198,221 Q188,235 146,298 Q104,361 83,391 Q71,409 56.5,418.5 Q42,428 33,429.5 Q24,431 9,431 L9,462 L216,462 L216,431 Q170,431 170,421 Q170,416 179,400 Q182,395 258,280 Q306,346 334,390 Q339,397 339,408 Q339,420 289,432 L289,462 L462,462 L462,433 Q397,413 370,381 Q325,325 275,256 Q355,140 397,77 Q411,55 425.5,46 Q440,37 474,31"/> 
            <glyph glyph-name="y" unicode="&#x79;" horiz-adv-x="488" d=" M488,433 Q471,430 447,413.5 Q423,397 414,377 Q388,320 304,114 Q292,85 279.5,54 Q267,23 260.5,5.5 Q254,-12 252,-15 Q219,-89 194.5,-133 Q170,-177 147,-196.5 Q124,-216 108,-221 Q92,-226 64,-226 Q38,-226 14,-209 Q-10,-192 -10,-158 Q-10,-137 6,-118.5 Q22,-100 47,-100 Q68,-100 83.5,-111.5 Q99,-123 99,-150 L99,-175 Q126,-169 156.5,-125.5 Q187,-82 204,-41 L220,0 Q198,55 63,382 Q45,423 -11,431 L-11,462 L208,462 L208,429 Q154,427 154,408 Q154,404 161,387 Q161,386 268,122 L272,122 Q309,210 371,368 Q377,389 377,396 Q377,409 353.5,419.5 Q330,430 312,432 L312,462 L488,462"/> 
            <glyph glyph-name="z" unicode="&#x7A;" horiz-adv-x="415" d=" M415,0 L26,0 L26,25 L298,426 Q291,426 257,426 Q223,426 211.5,426 Q200,426 177,425 Q154,424 140.5,421.5 Q127,419 117,415 Q88,404 71,322 L44,322 L44,462 L411,462 L411,443 L135,36 Q168,35 219,35 Q254,35 318,38 Q348,39 363,77 Q376,110 389,161 L415,161"/> 
            <glyph glyph-name="{" unicode="&#x7B;" horiz-adv-x="398" d=" M398,-169 Q283,-169 229.5,-134 Q176,-99 176,2 Q176,23 184,67.5 Q192,112 192,131 Q192,197 151,223.5 Q110,250 31,256 L31,319 Q111,326 151.5,352 Q192,378 192,444 Q192,463 184,507.5 Q176,552 176,573 Q176,674 229.5,709 Q283,744 398,744 L398,711 Q374,709 360,707.5 Q346,706 326,699.5 Q306,693 295,682.5 Q284,672 276,651.5 Q268,631 268,603 Q268,586 272.5,547.5 Q277,509 277,489 Q277,439 263.5,404 Q250,369 222.5,349 Q195,329 168,318.5 Q141,308 99,300 L99,275 Q141,267 168,256.5 Q195,246 222.5,226 Q250,206 263.5,171 Q277,136 277,86 Q277,66 272.5,28 Q268,-10 268,-28 Q268,-56 276,-76.5 Q284,-97 295,-107.5 Q306,-118 326,-124.5 Q346,-131 360,-132.5 Q374,-134 398,-136"/> 
            <glyph glyph-name="|" unicode="&#x7C;" horiz-adv-x="185" d=" M185,-207 L133,-207 L133,746 L185,746"/> 
            <glyph glyph-name="}" unicode="&#x7D;" horiz-adv-x="399" d=" M399,256 Q320,250 279,223.5 Q238,197 238,131 Q238,112 246,67.5 Q254,23 254,2 Q254,-99 200.5,-134 Q147,-169 32,-169 L32,-136 Q56,-134 70,-132.5 Q84,-131 104,-124.5 Q124,-118 135,-107.5 Q146,-97 154,-76.5 Q162,-56 162,-28 Q162,-10 157.5,28 Q153,66 153,86 Q153,136 166.5,171 Q180,206 207.5,226 Q235,246 262,256.5 Q289,267 331,275 L331,300 Q289,308 262,318.5 Q235,329 207.5,349 Q180,369 166.5,404 Q153,439 153,489 Q153,509 157.5,547.5 Q162,586 162,603 Q162,631 154,651.5 Q146,672 135,682.5 Q124,693 104,699.5 Q84,706 70,707.5 Q56,709 32,711 L32,744 Q147,744 200.5,709 Q254,674 254,573 Q254,552 246,507.5 Q238,463 238,444 Q238,378 278.5,352 Q319,326 399,319"/> 
            <glyph glyph-name="~" unicode="&#x7E;" horiz-adv-x="484" d=" M484,326 Q471,279 431.5,240 Q392,201 346,201 Q302,201 248.5,223 Q195,245 173,245 Q135,245 113.5,232.5 Q92,220 75,188 L55,195 Q68,242 107.5,281 Q147,320 193,320 Q234,320 288.5,298 Q343,276 366,276 Q404,276 425.5,288.5 Q447,301 464,333"/> 
            <glyph glyph-name="¡" unicode="&#xA1;" horiz-adv-x="247" d=" M247,657 Q247,601 227.5,581.5 Q208,562 180,562 Q152,562 132.5,581.5 Q113,601 113,629 Q113,657 132.5,676 Q152,695 180,695 Q208,695 247,657 M242,53 Q242,25 224.5,5 Q207,-15 180,-15 Q153,-15 135.5,5 Q118,25 118,53 Q118,70 125,132 Q132,194 144,294 Q156,394 163,472 L199,472 Q205,392 216,294 Q227,196 234.5,133 Q242,70 242,53"/> 
            <glyph glyph-name="¢" unicode="&#xA2;" horiz-adv-x="459" d=" M459,177 Q429,125 377.5,91.5 Q326,58 267,58 Q237,58 217,62 L174,-118 L139,-110 L182,71 Q114,95 79,156 Q44,217 44,303 Q44,401 108,473 Q172,545 273,545 Q286,545 292,544 L322,670 L358,662 L329,540 Q387,530 420,498.5 Q453,467 453,427 Q453,397 438,380 Q423,363 397,363 Q377,363 361.5,376.5 Q346,390 346,413 Q346,437 355.5,452 Q365,467 365,474 Q361,498 321,506 L231,123 Q257,109 291,109 Q337,109 368.5,130 Q400,151 428,197 M285,511 L271,511 Q219,511 181.5,461 Q144,411 144,307 Q144,205 199,147"/> 
            <glyph glyph-name="£" unicode="&#xA3;" horiz-adv-x="664" d=" M664,191 Q659,150 646,113 Q633,76 608.5,38.5 Q584,1 540,-21.5 Q496,-44 438,-44 Q366,-44 252,23 Q228,-7 186.5,-26 Q145,-45 111,-45 Q-2,-45 -2,31 Q-2,69 31.5,96.5 Q65,124 121,124 Q190,124 260,94 Q260,214 247,258 L112,258 L112,297 L242,297 Q241,301 236,323.5 Q231,346 228,370.5 Q225,395 225,425 Q225,533 286,607.5 Q347,682 459,682 Q540,682 585.5,636.5 Q631,591 631,528 Q631,497 614.5,471.5 Q598,446 569,446 Q509,446 509,504 Q509,523 520.5,536 Q532,549 544,556 Q556,563 556,566 Q556,648 457,648 Q435,648 414.5,641 Q394,634 372.5,618 Q351,602 338,568 Q325,534 325,487 Q325,470 332.5,397 Q340,324 340,297 L509,297 L509,258 L339,258 Q337,217 322.5,166 Q308,115 288,86 Q299,82 327,72 Q355,62 366,59 Q377,56 398.5,50.5 Q420,45 440,43 Q460,41 484,41 Q521,41 548.5,54.5 Q576,68 591.5,92 Q607,116 615,140 Q623,164 628,195 M227,37 Q153,78 95,78 Q64,78 47,62.5 Q30,47 30,32 Q30,16 52,4 Q74,-8 110,-8 Q180,-8 227,37"/> 
            <glyph glyph-name="¤" unicode="&#xA4;" horiz-adv-x="523" d=" M523,66 L486,28 L367,147 Q331,124 290,124 Q248,124 213,148 L93,28 L55,66 L175,186 Q152,220 152,262 Q152,302 175,338 L55,458 L92,496 L212,376 Q247,400 290,400 Q332,400 366,377 L485,496 L523,458 Q405,340 405,339 Q429,304 429,262 Q429,219 404,185 M380,225 Q380,299 353.5,326 Q327,353 290,353 Q253,353 227,326 Q201,299 201,262 Q201,225 227,198 Q253,171 290,171 Q327,171 380,225"/> 
            <glyph glyph-name="¥" unicode="&#xA5;" horiz-adv-x="588" d=" M588,579 Q559,576 539,563 Q521,553 513,546 Q505,539 489,519 Q442,460 358,307 Q346,285 342,274 L494,274 L494,235 L333,235 Q331,225 331,206 L331,94 Q331,59 360,46 Q381,36 435,33 L435,0 L125,0 L125,33 Q190,37 205,42 Q219,47 227.5,60 Q236,73 236,89 L236,235 L78,235 L78,274 L230,274 Q223,291 215,306 Q174,388 106,507 Q84,545 49,565 Q29,577 -7,579 L-7,607 L275,607 L275,579 Q271,579 261,578.5 Q251,578 244.5,577.5 Q238,577 228.5,576 Q219,575 212.5,573.5 Q206,572 200,570 Q194,568 191,565 Q188,562 188,558 Q188,543 315,319 Q448,528 448,547 Q448,556 441,562.5 Q434,569 417.5,572 Q401,575 391.5,576 Q382,577 360,579 L360,607 L588,607"/> 
            <glyph glyph-name="¦" unicode="&#xA6;" horiz-adv-x="185" d=" M185,364 L133,364 L133,746 L185,746 M185,-207 L133,-207 L133,185 L185,185"/> 
            <glyph glyph-name="§" unicode="&#xA7;" horiz-adv-x="496" d=" M496,178 Q496,77 364,54 Q407,-10 407,-77 Q407,-138 361.5,-182.5 Q316,-227 248,-227 Q185,-227 146,-197.5 Q107,-168 107,-125 Q107,-98 123.5,-81 Q140,-64 166,-64 Q187,-64 201.5,-77.5 Q216,-91 216,-110 Q216,-122 208.5,-137 Q201,-152 201,-161 Q201,-194 255,-194 Q291,-194 313,-167.5 Q335,-141 335,-91 Q335,-57 323.5,-33 Q312,-9 281,32 Q260,59 218,104 Q176,149 150,180 Q108,230 91,263 Q74,296 74,339 Q74,395 112,428 Q150,461 203,469 Q164,528 164,590 Q164,650 211,694 Q258,738 325,738 Q384,738 420.5,705.5 Q457,673 457,631 Q457,606 442,589 Q427,572 402,572 Q382,572 367.5,585.5 Q353,599 353,618 Q353,631 360,647 Q367,663 367,674 Q367,705 315,705 Q278,705 255,679 Q232,653 232,611 Q232,587 239.5,566.5 Q247,546 256,532.5 Q265,519 289,488 Q311,459 355,409.5 Q399,360 417,339 Q461,287 478.5,254 Q496,221 496,178 M423,165 Q423,202 381,253 Q356,283 301,347 Q246,411 224,440 Q183,431 163,412 Q143,393 143,357 Q143,316 187,263 Q213,232 267,172.5 Q321,113 343,81 Q423,104 423,165"/> 
            <glyph glyph-name="¨" unicode="&#xA8;" horiz-adv-x="417" d=" M417,659 Q417,634 400,616 Q383,598 358,598 Q334,598 317,615 Q300,632 300,655 Q300,679 317,696.5 Q334,714 358,714 Q383,714 400,697.5 Q417,681 417,659 M200,659 Q200,634 182.5,616 Q165,598 140,598 Q117,598 100,615 Q83,632 83,655 Q83,679 100,696.5 Q117,714 140,714 Q166,714 183,697.5 Q200,681 200,659"/> 
            <glyph glyph-name="©" unicode="&#xA9;" horiz-adv-x="903" d=" M903,251 Q903,73 776,-54 Q649,-181 472,-181 Q293,-181 166,-54 Q39,73 39,251 Q39,428 166.5,554.5 Q294,681 472,681 Q649,681 776,554.5 Q903,428 903,251 M865,251 Q865,415 750.5,530.5 Q636,646 472,646 Q307,646 192,530.5 Q77,415 77,251 Q77,85 192,-31 Q307,-147 472,-147 Q636,-147 750.5,-31 Q865,85 865,251 M669,155 Q605,13 478,13 Q369,13 304,76.5 Q239,140 239,247 Q239,351 310.5,420.5 Q382,490 492,490 Q519,490 550.5,481.5 Q582,473 599,460 L621,497 L650,496 L654,315 L629,315 Q606,382 572.5,419 Q539,456 473,456 Q418,456 379,404 Q340,352 340,252 Q340,166 385,113.5 Q430,61 498,61 Q555,61 588,88.5 Q621,116 645,166"/> 
            <glyph glyph-name="ª" unicode="&#xAA;" horiz-adv-x="393" d=" M393,376 Q387,281 313,281 Q265,281 251,328 L248,328 Q205,280 143,280 Q105,280 82,301.5 Q59,323 59,359 Q59,424 135,454 Q149,460 190,474.5 Q231,489 247,497 L247,527 Q247,538 245,549.5 Q243,561 229,576.5 Q215,592 190,592 Q161,592 147,578 Q147,573 150,558.5 Q153,544 153,536 Q153,523 141,513 Q129,503 110,503 Q93,503 84,514.5 Q75,526 75,542 Q75,574 113,597.5 Q151,621 194,621 Q255,621 286.5,599.5 Q318,578 318,513 Q318,477 316,419.5 Q314,362 314,355 Q314,346 319.5,335 Q325,324 339,324 Q366,324 369,376 M379,155 L66,155 L66,201 L379,201 M248,467 Q188,448 159,428 Q130,408 130,368 Q130,319 178,319 Q216,319 245,355"/> 
            <glyph glyph-name="«" unicode="&#xAB;" horiz-adv-x="509" d=" M509,33 L488,15 Q451,45 405,82.5 Q359,120 328,144.5 Q297,169 281,182 Q270,190 267,193 Q264,196 261.5,203.5 Q259,211 259,224 Q259,241 263,247.5 Q267,254 279,264 Q385,345 488,432 L509,414 L352,222 M300,33 L279,15 Q242,45 196,82.5 Q150,120 119,144.5 Q88,169 72,182 Q61,190 58,193 Q55,196 52.5,203.5 Q50,211 50,224 Q50,241 54,247.5 Q58,254 70,264 Q176,345 279,432 L300,414 L143,222"/> 
            <glyph glyph-name="¬" unicode="&#xAC;" horiz-adv-x="517" d=" M517,39 L460,39 L460,254 L49,254 L49,306 L517,306"/> 
            <glyph glyph-name="®" unicode="&#xAE;" horiz-adv-x="577" d=" M577,550 Q577,336 499.5,259 Q422,182 315,182 Q207,182 130,259 Q53,336 53,443 Q53,550 130,626.5 Q207,703 315,703 Q422,703 577,550 M549,443 Q549,540 480.5,609.5 Q412,679 315,679 Q218,679 149.5,609.5 Q81,540 81,443 Q81,345 149.5,275.5 Q218,206 315,206 Q412,206 480.5,275.5 Q549,345 549,443 M483,306 L386,306 Q375,353 361,391 Q353,413 335,428 Q317,443 296,443 L277,443 L277,348 Q277,334 288,330 Q300,326 322,326 L322,306 L183,306 L183,326 Q204,326 216,330 Q227,334 227,348 L227,555 Q227,571 216,573 Q206,577 183,579 L183,599 L333,599 Q370,599 396.5,581.5 Q423,564 423,530 Q423,497 402.5,482 Q382,467 342,456 L342,454 Q395,443 413,401 Q415,397 430,351 Q435,334 455,329 Q467,326 483,326 M366,526 Q366,552 350.5,564.5 Q335,577 311,577 L277,577 L277,466 L301,466 Q328,466 347,482.5 Q366,499 366,526"/> 
            <glyph glyph-name="¯" unicode="&#xAF;" horiz-adv-x="415" d=" M415,596 L85,596 L85,658 L415,658"/> 
            <glyph glyph-name="°" unicode="&#xB0;" horiz-adv-x="364" d=" M364,550 Q364,486 314.5,440 Q265,394 203,394 Q138,394 92,435.5 Q46,477 46,549 Q46,616 94.5,663 Q143,710 203,710 Q269,710 316.5,668.5 Q364,627 364,550 M293,548 Q293,605 269,637 Q245,669 204,669 Q164,669 140,636.5 Q116,604 116,553 Q116,500 140,467.5 Q164,435 206,435 Q242,435 267.5,465.5 Q293,496 293,548"/> 
            <glyph glyph-name="±" unicode="&#xB1;" horiz-adv-x="853" d=" M853,0 L621,0 L621,31 Q648,33 664,37 Q692,46 692,82 L692,593 Q660,602 660,629 Q660,643 666,654 Q672,665 679,671 Q686,677 686,678 Q685,684 680,691.5 Q675,699 657,707 Q639,715 613,715 Q561,715 525,664.5 Q489,614 489,507 L489,460 L612,460 L612,419 L489,419 L489,87 Q489,52 516,42 Q540,32 566,31 L566,0 L327,0 L327,31 Q356,33 371,37 Q398,46 398,82 L398,422 L197,422 L197,87 Q197,52 224,42 Q249,32 269,31 L269,0 L35,0 L35,31 Q64,33 79,37 Q106,46 106,82 L106,420 L4,420 L4,460 L106,460 L106,476 Q106,595 178,676 Q201,702 242.5,721 Q284,740 327,740 Q431,740 460,668 Q466,677 482.5,693 Q499,709 538,728 Q577,747 619,747 Q676,747 726,723 L760,746 L782,739 L782,88 Q782,54 809,42 Q830,32 853,31 M415,587 Q369,589 369,625 Q369,640 371.5,649.5 Q374,659 378,665.5 Q382,672 382,673 Q376,707 320,707 Q269,707 232.5,658.5 Q196,610 196,502 L196,460 L400,460 L400,481 Q400,535 415,587"/> 
            <glyph glyph-name="²" unicode="&#xB2;" horiz-adv-x="597" d=" M597,291 Q597,260 575.5,238.5 Q554,217 522,217 Q498,217 465.5,240 Q433,263 406,267 L397,259 Q391,224 358,199 L357,189 Q372,169 410,150 Q465,124 465,74 Q465,44 442,21 Q419,-2 387,-2 Q356,-2 334,19.5 Q312,41 312,73 Q312,87 321,116 Q330,145 330,167 L330,178 L323,183 Q316,182 303,182 Q273,182 247,200 L234,199 Q219,177 213,138 Q199,55 135,55 Q104,55 81,77.5 Q58,100 58,132 Q58,164 82,185.5 Q106,207 141,207 Q190,207 215,220 L218,234 Q208,256 208,277 Q208,290 211,302 L206,315 Q197,318 179,318 Q164,318 144,314.5 Q124,311 115,311 Q82,311 60,333.5 Q38,356 38,387 Q38,418 60,441 Q82,464 114,464 Q159,464 181,422 Q185,415 190,398 Q195,381 201.5,366.5 Q208,352 219,341 L234,342 Q262,372 303,372 L314,379 Q314,407 297,440.5 Q280,474 280,493 Q280,525 302,545.5 Q324,566 356,566 Q388,566 409,543.5 Q430,521 430,490 Q430,468 420,452.5 Q410,437 397.5,429.5 Q385,422 368.5,407 Q352,392 342,374 L346,362 Q384,342 394,304 L406,298 Q429,306 460.5,337 Q492,368 524,368 Q554,368 575.5,345.5 Q597,323 597,291 M370,278 Q370,307 351,326.5 Q332,346 303,346 Q275,346 255.5,326.5 Q236,307 236,278 Q236,249 255.5,228.5 Q275,208 303,208 Q332,208 351,228 Q370,248 370,278"/> 
            <glyph glyph-name="³" unicode="&#xB3;" horiz-adv-x="597" d=" M597,291 Q597,260 575.5,238.5 Q554,217 522,217 Q498,217 465.5,240 Q433,263 406,267 L397,259 Q391,224 358,199 L357,189 Q372,169 410,150 Q465,124 465,74 Q465,44 442,21 Q419,-2 387,-2 Q356,-2 334,19.5 Q312,41 312,73 Q312,87 321,116 Q330,145 330,167 L330,178 L323,183 Q316,182 303,182 Q273,182 247,200 L234,199 Q219,177 213,138 Q199,55 135,55 Q104,55 81,77.5 Q58,100 58,132 Q58,164 82,185.5 Q106,207 141,207 Q190,207 215,220 L218,234 Q208,256 208,277 Q208,290 211,302 L206,315 Q197,318 179,318 Q164,318 144,314.5 Q124,311 115,311 Q82,311 60,333.5 Q38,356 38,387 Q38,418 60,441 Q82,464 114,464 Q159,464 181,422 Q185,415 190,398 Q195,381 201.5,366.5 Q208,352 219,341 L234,342 Q262,372 303,372 L314,379 Q314,407 297,440.5 Q280,474 280,493 Q280,525 302,545.5 Q324,566 356,566 Q388,566 409,543.5 Q430,521 430,490 Q430,468 420,452.5 Q410,437 397.5,429.5 Q385,422 368.5,407 Q352,392 342,374 L346,362 Q384,342 394,304 L406,298 Q429,306 460.5,337 Q492,368 524,368 Q554,368 575.5,345.5 Q597,323 597,291 M370,278 Q370,307 351,326.5 Q332,346 303,346 Q275,346 255.5,326.5 Q236,307 236,278 Q236,249 255.5,228.5 Q275,208 303,208 Q332,208 351,228 Q370,248 370,278"/> 
            <glyph glyph-name="´" unicode="&#xB4;" horiz-adv-x="340" d=" M340,703 Q340,686 332,675 Q324,664 304,648 Q295,641 248.5,606 Q202,571 156,534 L142,546 Q190,616 239,698 Q264,741 300,741 Q317,741 328.5,729.5 Q340,718 340,703"/> 
            <glyph glyph-name="µ" unicode="&#xB5;" horiz-adv-x="589" d=" M589,119 Q584,-10 478,-10 Q412,-10 389,58 L386,58 Q330,-12 246,-12 Q216,-12 186,3.5 Q156,19 139,45 L137,45 L137,3 Q137,-29 154,-88 Q171,-147 171,-174 Q171,-198 155,-212 Q139,-226 117,-226 Q96,-226 82,-212.5 Q68,-199 68,-177 Q68,-162 71.5,-134.5 Q75,-107 80.5,-76 Q86,-45 87,-35 Q92,5 92,63 L92,462 L183,462 L183,146 Q183,98 211,69 Q239,40 274,40 Q355,40 386,92 L386,462 L477,462 L477,95 Q477,73 488,58.5 Q499,44 521,44 Q535,44 543,57 Q551,70 553,82.5 Q555,95 557,119"/> 
            <glyph glyph-name="¶" unicode="&#xB6;" horiz-adv-x="603" d=" M603,651 L466,651 L466,-125 L428,-125 L428,651 L342,651 L342,-125 L304,-125 L304,342 L279,342 Q215,342 169.5,356.5 Q124,371 101,396.5 Q78,422 68,449.5 Q58,477 58,510 Q58,577 103.5,630 Q149,683 244,683 L603,683"/> 
            <glyph glyph-name="·" unicode="&#xB7;" horiz-adv-x="214" d=" M214,300 Q214,244 194,224.5 Q174,205 146,205 Q118,205 98,224.5 Q78,244 78,272 Q78,300 98,320 Q118,340 146,340 Q174,340 214,300"/> 
            <glyph glyph-name="¸" unicode="&#xB8;" horiz-adv-x="355" d=" M355,-131 Q355,-237 143,-237 L143,-201 Q227,-201 251,-192 Q283,-180 283,-149 Q283,-132 266,-123.5 Q249,-115 232.5,-113.5 Q216,-112 189,-112 L189,8 L223,8 L223,-55 Q355,-55 355,-131"/> 
            <glyph glyph-name="¹" unicode="&#xB9;" horiz-adv-x="597" d=" M597,291 Q597,260 575.5,238.5 Q554,217 522,217 Q498,217 465.5,240 Q433,263 406,267 L397,259 Q391,224 358,199 L357,189 Q372,169 410,150 Q465,124 465,74 Q465,44 442,21 Q419,-2 387,-2 Q356,-2 334,19.5 Q312,41 312,73 Q312,87 321,116 Q330,145 330,167 L330,178 L323,183 Q316,182 303,182 Q273,182 247,200 L234,199 Q219,177 213,138 Q199,55 135,55 Q104,55 81,77.5 Q58,100 58,132 Q58,164 82,185.5 Q106,207 141,207 Q190,207 215,220 L218,234 Q208,256 208,277 Q208,290 211,302 L206,315 Q197,318 179,318 Q164,318 144,314.5 Q124,311 115,311 Q82,311 60,333.5 Q38,356 38,387 Q38,418 60,441 Q82,464 114,464 Q159,464 181,422 Q185,415 190,398 Q195,381 201.5,366.5 Q208,352 219,341 L234,342 Q262,372 303,372 L314,379 Q314,407 297,440.5 Q280,474 280,493 Q280,525 302,545.5 Q324,566 356,566 Q388,566 409,543.5 Q430,521 430,490 Q430,468 420,452.5 Q410,437 397.5,429.5 Q385,422 368.5,407 Q352,392 342,374 L346,362 Q384,342 394,304 L406,298 Q429,306 460.5,337 Q492,368 524,368 Q554,368 575.5,345.5 Q597,323 597,291 M370,278 Q370,307 351,326.5 Q332,346 303,346 Q275,346 255.5,326.5 Q236,307 236,278 Q236,249 255.5,228.5 Q275,208 303,208 Q332,208 351,228 Q370,248 370,278"/> 
            <glyph glyph-name="º" unicode="&#xBA;" horiz-adv-x="387" d=" M387,453 Q387,379 342.5,328.5 Q298,278 221,278 Q156,278 109.5,325 Q63,372 63,448 Q63,524 108,572 Q153,620 226,620 Q298,620 342.5,572.5 Q387,525 387,453 M382,155 L68,155 L68,201 L382,201 M310,452 Q310,511 290,550.5 Q270,590 225,590 Q179,590 159.5,550 Q140,510 140,453 Q140,390 160.5,349 Q181,308 225,308 Q268,308 289,348.5 Q310,389 310,452"/> 
            <glyph glyph-name="»" unicode="&#xBB;" horiz-adv-x="510" d=" M510,224 Q510,211 507.5,203.5 Q505,196 502,193 Q499,190 488,182 Q472,169 441,144.5 Q410,120 364,82.5 Q318,45 281,15 L260,33 L417,222 L260,414 L281,432 Q384,345 490,264 Q503,254 506.5,247.5 Q510,241 510,224 M301,224 Q301,211 298.5,203.5 Q296,196 293,193 Q290,190 279,182 Q263,169 232,144.5 Q201,120 155,82.5 Q109,45 72,15 L51,33 L208,222 L51,414 L72,432 Q175,345 281,264 Q294,254 297.5,247.5 Q301,241 301,224"/> 
            <glyph glyph-name="¼" unicode="&#xBC;" horiz-adv-x="851" d=" M851,-30 L827,-30 Q825,9 806,24 Q803,26 801,27 Q799,28 795.5,29 Q792,30 789.5,30.5 Q787,31 781.5,31 Q776,31 772,31 Q768,31 758.5,31 Q749,31 742,31 L742,-27 Q742,-51 762,-58 Q776,-63 811,-66 L811,-95 L596,-95 L596,-66 Q639,-63 645,-61 Q666,-55 666,-31 L666,31 L456,31 L456,71 L700,316 L742,316 L742,72 Q746,72 752,72 Q794,72 807,81 Q826,95 826,130 L851,130 M808,601 L137,-113 L105,-83 L775,631 M339,220 L86,220 L86,249 Q141,253 150,256 Q174,263 174,287 L174,551 Q161,548 138,548 Q111,548 54,587 L63,608 Q106,591 140,591 Q189,591 250,620 L266,620 Q255,567 255,516 L255,291 Q255,267 278,259 Q294,252 339,249 M666,72 L666,233 L503,72"/> 
            <glyph glyph-name="½" unicode="&#xBD;" horiz-adv-x="874" d=" M874,32 L826,-95 L525,-95 L525,-55 Q596,-11 628,12 Q660,35 695,69 Q750,122 750,202 Q750,238 730,258 Q710,278 679,278 Q647,278 628,264.5 Q609,251 607,229 Q608,226 618.5,214.5 Q629,203 629,191 Q629,177 616,163 Q603,149 578,149 Q557,149 546,163.5 Q535,178 535,195 Q535,232 576,270.5 Q617,309 692,309 Q756,309 798,276.5 Q840,244 840,196 Q840,131 798.5,87.5 Q757,44 631,-21 L616,-34 L779,-34 Q784,-34 789.5,-32.5 Q795,-31 800,-27.5 Q805,-24 809,-20.5 Q813,-17 817.5,-11 Q822,-5 825,-1.5 Q828,2 832.5,10 Q837,18 838.5,21 Q840,24 844,32 Q848,40 849,41 M798,601 L127,-113 L95,-83 L765,631 M339,220 L86,220 L86,249 Q141,253 150,256 Q174,263 174,287 L174,551 Q161,548 138,548 Q111,548 54,587 L63,608 Q106,591 140,591 Q189,591 250,620 L266,620 Q255,567 255,516 L255,291 Q255,267 278,259 Q294,252 339,249"/> 
            <glyph glyph-name="¾" unicode="&#xBE;" horiz-adv-x="860" d=" M860,-30 L836,-30 Q834,9 815,24 Q812,26 810,27 Q808,28 804.5,29 Q801,30 798.5,30.5 Q796,31 790.5,31 Q785,31 781,31 Q777,31 767.5,31 Q758,31 751,31 L751,-27 Q751,-51 771,-58 Q785,-63 820,-66 L820,-95 L605,-95 L605,-66 Q648,-63 654,-61 Q675,-55 675,-31 L675,31 L465,31 L465,71 L709,316 L751,316 L751,72 Q755,72 761,72 Q803,72 816,81 Q835,95 835,130 L860,130 M826,601 L155,-113 L123,-83 L793,631 M392,346 Q392,281 336.5,244 Q281,207 192,207 Q139,207 97.5,232 Q56,257 56,300 Q56,325 71.5,339 Q87,353 111,353 Q152,353 152,318 Q152,305 136.5,294.5 Q121,284 121,275 Q121,239 191,239 Q236,239 271.5,271.5 Q307,304 307,352 Q307,413 255,413 Q230,413 200,383 L178,416 Q253,459 270,476 Q295,501 295,533 Q295,590 228,590 Q202,590 186,579.5 Q170,569 168,559 Q168,557 175,545.5 Q182,534 182,522 Q182,508 171.5,495.5 Q161,483 136,483 Q115,483 105,496 Q95,509 95,524 Q95,559 135.5,590 Q176,621 245,621 Q314,621 346.5,592 Q379,563 379,533 Q379,466 264,442 L264,438 Q269,439 278,439 Q320,439 356,417 Q392,395 392,346 M675,72 L675,233 L512,72"/> 
            <glyph glyph-name="¿" unicode="&#xBF;" horiz-adv-x="449" d=" M374,657 Q374,601 354.5,581.5 Q335,562 307,562 Q279,562 259.5,581.5 Q240,601 240,629 Q240,657 259.5,675.5 Q279,694 307,694 Q335,694 374,657 M449,88 Q449,48 403,17 Q357,-14 282,-14 Q180,-14 125,41.5 Q70,97 70,186 Q70,269 131.5,326 Q193,383 287,395 L290,505 L328,505 L328,319 Q294,314 269,306.5 Q244,299 218,284 Q192,269 178,242 Q164,215 164,178 Q164,23 284,23 Q334,23 351,44 Q351,45 348.5,49.5 Q346,54 345,58 Q344,62 342.5,72 Q341,82 341,96 Q341,119 360.5,132 Q380,145 398,145 Q423,145 436,129 Q449,113 449,88"/> 
            <glyph glyph-name="À" unicode="&#xC0;" horiz-adv-x="721" d=" M721,0 L406,0 L406,33 Q507,39 507,61 Q507,73 503,84 L443,237 L198,237 Q175,181 160,132 Q149,97 149,76 Q149,56 186,45.5 Q223,35 262,33 L262,0 L-23,0 L-23,33 Q19,35 47,51 Q84,73 104,119 Q137,200 334,694 L377,694 Q434,550 515,342.5 Q596,135 610,99 Q622,69 655,50 Q682,35 721,33 M426,280 L320,547 L215,280 M406,737 L392,725 Q346,762 299.5,797 Q253,832 244,839 Q224,855 216,866 Q208,877 208,894 Q208,909 219.5,920.5 Q231,932 248,932 Q284,932 309,889 Q358,807 406,737"/> 
            <glyph glyph-name="Á" unicode="&#xC1;" horiz-adv-x="721" d=" M721,0 L406,0 L406,33 Q507,39 507,61 Q507,73 503,84 L443,237 L198,237 Q175,181 160,132 Q149,97 149,76 Q149,56 186,45.5 Q223,35 262,33 L262,0 L-23,0 L-23,33 Q19,35 47,51 Q84,73 104,119 Q137,200 334,694 L377,694 Q434,550 515,342.5 Q596,135 610,99 Q622,69 655,50 Q682,35 721,33 M426,280 L320,547 L215,280 M500,894 Q500,877 492,866 Q484,855 464,839 Q455,832 408.5,797 Q362,762 316,725 L302,737 Q350,807 399,889 Q424,932 460,932 Q477,932 488.5,920.5 Q500,909 500,894"/> 
            <glyph glyph-name="Â" unicode="&#xC2;" horiz-adv-x="721" d=" M721,0 L406,0 L406,33 Q507,39 507,61 Q507,73 503,84 L443,237 L198,237 Q175,181 160,132 Q149,97 149,76 Q149,56 186,45.5 Q223,35 262,33 L262,0 L-23,0 L-23,33 Q19,35 47,51 Q84,73 104,119 Q137,200 334,694 L377,694 Q434,550 515,342.5 Q596,135 610,99 Q622,69 655,50 Q682,35 721,33 M426,280 L320,547 L215,280 M513,716 L494,704 L353,838 L214,704 L195,716 Q283,844 311,887 Q321,902 327.5,905.5 Q334,909 355,909 Q376,909 381.5,906 Q387,903 396,889 Q409,870 449,810.5 Q489,751 513,716"/> 
            <glyph glyph-name="Ã" unicode="&#xC3;" horiz-adv-x="721" d=" M721,0 L406,0 L406,33 Q507,39 507,61 Q507,73 503,84 L443,237 L198,237 Q175,181 160,132 Q149,97 149,76 Q149,56 186,45.5 Q223,35 262,33 L262,0 L-23,0 L-23,33 Q19,35 47,51 Q84,73 104,119 Q137,200 334,694 L377,694 Q434,550 515,342.5 Q596,135 610,99 Q622,69 655,50 Q682,35 721,33 M426,280 L320,547 L215,280 M559,881 Q547,838 511,797 Q475,756 431,756 Q387,756 341,783 Q295,810 270,810 Q262,810 255.5,808.5 Q249,807 244,805.5 Q239,804 234,799.5 Q229,795 226,792.5 Q223,790 217.5,782 Q212,774 210,770.5 Q208,767 202,756 Q196,745 193,740 L170,750 Q186,795 219,835 Q252,875 295,875 Q337,875 383.5,848 Q430,821 451,821 Q466,821 477.5,824 Q489,827 495.5,829 Q502,831 509,840.5 Q516,850 518,853 Q520,856 526.5,871 Q533,886 535,890"/> 
            <glyph glyph-name="Ä" unicode="&#xC4;" horiz-adv-x="721" d=" M721,0 L406,0 L406,33 Q507,39 507,61 Q507,73 503,84 L443,237 L198,237 Q175,181 160,132 Q149,97 149,76 Q149,56 186,45.5 Q223,35 262,33 L262,0 L-23,0 L-23,33 Q19,35 47,51 Q84,73 104,119 Q137,200 334,694 L377,694 Q434,550 515,342.5 Q596,135 610,99 Q622,69 655,50 Q682,35 721,33 M426,280 L320,547 L215,280 M518,825 Q518,800 501,782 Q484,764 459,764 Q435,764 418,781 Q401,798 401,821 Q401,845 418,862.5 Q435,880 459,880 Q484,880 501,863.5 Q518,847 518,825 M301,825 Q301,800 283.5,782 Q266,764 241,764 Q218,764 201,781 Q184,798 184,821 Q184,845 201,862.5 Q218,880 241,880 Q267,880 284,863.5 Q301,847 301,825"/> 
            <glyph glyph-name="Å" unicode="&#xC5;" horiz-adv-x="721" d=" M721,0 L406,0 L406,33 Q507,39 507,61 Q507,73 503,84 L443,237 L198,237 Q175,181 160,132 Q149,97 149,76 Q149,56 186,45.5 Q223,35 262,33 L262,0 L-23,0 L-23,33 Q19,35 47,51 Q84,73 104,119 Q137,200 334,694 L377,694 Q434,550 515,342.5 Q596,135 610,99 Q622,69 655,50 Q682,35 721,33 M426,280 L320,547 L215,280 M471,824 Q471,778 438,748 Q405,718 352,718 Q298,718 265.5,747.5 Q233,777 233,824 Q233,870 267,900 Q301,930 352,930 Q404,930 437.5,900.5 Q471,871 471,824 M414,824 Q414,859 397.5,880 Q381,901 352,901 Q323,901 306.5,880.5 Q290,860 290,824 Q290,789 306.5,768 Q323,747 352,747 Q382,747 398,767.5 Q414,788 414,824"/> 
            <glyph glyph-name="Æ" unicode="&#xC6;" horiz-adv-x="916" d=" M916,202 L903,0 L326,0 L326,33 Q385,36 405,44 Q436,56 436,93 L436,269 L211,269 Q166,191 138,132 Q122,100 122,83 Q122,39 215,33 L215,0 L-60,0 L-60,33 Q-20,35 14,52 Q49,70 79,119 Q104,162 377,639 Q349,649 300,651 L300,683 L862,683 L862,518 L825,518 Q816,554 782,596 Q748,638 718,642 Q686,646 635,646 L542,646 L542,373 L622,373 Q648,373 666.5,379 Q685,385 690.5,389.5 Q696,394 706,404 Q716,414 725,441.5 Q734,469 737,491 L774,491 L774,212 L737,212 Q736,234 725.5,264 Q715,294 706,304 Q677,335 622,335 L542,335 L542,130 Q542,70 563,54.5 Q584,39 661,39 Q778,39 800,62 Q821,83 846.5,129.5 Q872,176 881,202 M436,310 L436,640 L423,640 L236,310"/> 
            <glyph glyph-name="Ç" unicode="&#xC7;" horiz-adv-x="642" d=" M642,173 Q560,-14 369,-14 L358,-14 L358,-55 Q490,-55 490,-131 Q490,-237 278,-237 L278,-201 Q362,-201 386,-192 Q418,-180 418,-149 Q418,-132 401,-123.5 Q384,-115 367.5,-113.5 Q351,-112 324,-112 L324,-12 Q194,3 116,95.5 Q38,188 38,333 Q38,488 138.5,592 Q239,696 390,696 Q430,696 474,680 Q518,664 541,642 L571,693 L612,693 L616,438 L582,438 Q550,538 498.5,597.5 Q447,657 359,657 Q275,657 216.5,577 Q158,497 158,341 Q158,212 228,129 Q298,46 398,46 Q483,46 529.5,82 Q576,118 609,189"/> 
            <glyph glyph-name="È" unicode="&#xC8;" horiz-adv-x="644" d=" M644,202 L631,0 L39,0 L39,33 Q98,36 118,44 Q149,56 149,93 L149,584 Q149,621 118,633 Q83,648 39,650 L39,683 L590,683 L590,518 L553,518 Q544,554 510,596 Q476,638 446,642 Q414,646 363,646 L255,646 L255,373 L335,373 Q361,373 379.5,379 Q398,385 403.5,389.5 Q409,394 419,404 Q429,414 438,441.5 Q447,469 450,491 L487,491 L487,212 L450,212 Q449,234 438.5,264 Q428,294 419,304 Q390,335 335,335 L255,335 L255,130 Q255,70 276,54.5 Q297,39 374,39 Q484,39 514,53 Q523,57 528,62 Q549,83 574.5,129.5 Q600,176 609,202 M383,737 L369,725 Q323,762 276.5,797 Q230,832 221,839 Q201,855 193,866 Q185,877 185,894 Q185,909 196.5,920.5 Q208,932 225,932 Q261,932 286,889 Q335,807 383,737"/> 
            <glyph glyph-name="É" unicode="&#xC9;" horiz-adv-x="644" d=" M644,202 L631,0 L39,0 L39,33 Q98,36 118,44 Q149,56 149,93 L149,584 Q149,621 118,633 Q83,648 39,650 L39,683 L590,683 L590,518 L553,518 Q544,554 510,596 Q476,638 446,642 Q414,646 363,646 L255,646 L255,373 L335,373 Q361,373 379.5,379 Q398,385 403.5,389.5 Q409,394 419,404 Q429,414 438,441.5 Q447,469 450,491 L487,491 L487,212 L450,212 Q449,234 438.5,264 Q428,294 419,304 Q390,335 335,335 L255,335 L255,130 Q255,70 276,54.5 Q297,39 374,39 Q484,39 514,53 Q523,57 528,62 Q549,83 574.5,129.5 Q600,176 609,202 M475,894 Q475,877 467,866 Q459,855 439,839 Q430,832 383.5,797 Q337,762 291,725 L277,737 Q325,807 374,889 Q399,932 435,932 Q452,932 463.5,920.5 Q475,909 475,894"/> 
            <glyph glyph-name="Ê" unicode="&#xCA;" horiz-adv-x="644" d=" M644,202 L631,0 L39,0 L39,33 Q98,36 118,44 Q149,56 149,93 L149,584 Q149,621 118,633 Q83,648 39,650 L39,683 L590,683 L590,518 L553,518 Q544,554 510,596 Q476,638 446,642 Q414,646 363,646 L255,646 L255,373 L335,373 Q361,373 379.5,379 Q398,385 403.5,389.5 Q409,394 419,404 Q429,414 438,441.5 Q447,469 450,491 L487,491 L487,212 L450,212 Q449,234 438.5,264 Q428,294 419,304 Q390,335 335,335 L255,335 L255,130 Q255,70 276,54.5 Q297,39 374,39 Q484,39 514,53 Q523,57 528,62 Q549,83 574.5,129.5 Q600,176 609,202 M499,741 L480,729 L339,863 L200,729 L181,741 Q269,869 297,912 Q307,927 313.5,930.5 Q320,934 341,934 Q362,934 367.5,931 Q373,928 382,914 Q395,895 435,835.5 Q475,776 499,741"/> 
            <glyph glyph-name="Ë" unicode="&#xCB;" horiz-adv-x="644" d=" M644,202 L631,0 L39,0 L39,33 Q98,36 118,44 Q149,56 149,93 L149,584 Q149,621 118,633 Q83,648 39,650 L39,683 L590,683 L590,518 L553,518 Q544,554 510,596 Q476,638 446,642 Q414,646 363,646 L255,646 L255,373 L335,373 Q361,373 379.5,379 Q398,385 403.5,389.5 Q409,394 419,404 Q429,414 438,441.5 Q447,469 450,491 L487,491 L487,212 L450,212 Q449,234 438.5,264 Q428,294 419,304 Q390,335 335,335 L255,335 L255,130 Q255,70 276,54.5 Q297,39 374,39 Q484,39 514,53 Q523,57 528,62 Q549,83 574.5,129.5 Q600,176 609,202 M505,830 Q505,805 488,787 Q471,769 446,769 Q422,769 405,786 Q388,803 388,826 Q388,850 405,867.5 Q422,885 446,885 Q471,885 488,868.5 Q505,852 505,830 M288,830 Q288,805 270.5,787 Q253,769 228,769 Q205,769 188,786 Q171,803 171,826 Q171,850 188,867.5 Q205,885 228,885 Q254,885 271,868.5 Q288,852 288,830"/> 
            <glyph glyph-name="Ì" unicode="&#xCC;" horiz-adv-x="361" d=" M361,0 L47,0 L47,33 Q105,36 120,42 Q151,54 151,90 L151,585 Q151,621 120,633 Q81,648 47,650 L47,683 L361,683 L361,650 Q317,648 288,638 Q257,628 257,590 L257,95 Q257,60 288,47 Q316,36 361,33 M245,737 L231,725 Q185,762 138.5,797 Q92,832 83,839 Q63,855 55,866 Q47,877 47,894 Q47,909 58.5,920.5 Q70,932 87,932 Q123,932 148,889 Q197,807 245,737"/> 
            <glyph glyph-name="Í" unicode="&#xCD;" horiz-adv-x="363" d=" M361,0 L47,0 L47,33 Q105,36 120,42 Q151,54 151,90 L151,585 Q151,621 120,633 Q81,648 47,650 L47,683 L361,683 L361,650 Q317,648 288,638 Q257,628 257,590 L257,95 Q257,60 288,47 Q316,36 361,33 M363,894 Q363,877 355,866 Q347,855 327,839 Q318,832 271.5,797 Q225,762 179,725 L165,737 Q213,807 262,889 Q287,932 323,932 Q340,932 351.5,920.5 Q363,909 363,894"/> 
            <glyph glyph-name="Î" unicode="&#xCE;" horiz-adv-x="365" d=" M361,0 L47,0 L47,33 Q105,36 120,42 Q151,54 151,90 L151,585 Q151,621 120,633 Q81,648 47,650 L47,683 L361,683 L361,650 Q317,648 288,638 Q257,628 257,590 L257,95 Q257,60 288,47 Q316,36 361,33 M365,741 L346,729 L205,863 L66,729 L47,741 Q135,869 163,912 Q173,927 179.5,930.5 Q186,934 207,934 Q228,934 233.5,931 Q239,928 248,914 Q261,895 301,835.5 Q341,776 365,741"/> 
            <glyph glyph-name="Ï" unicode="&#xCF;" horiz-adv-x="381" d=" M361,0 L47,0 L47,33 Q105,36 120,42 Q151,54 151,90 L151,585 Q151,621 120,633 Q81,648 47,650 L47,683 L361,683 L361,650 Q317,648 288,638 Q257,628 257,590 L257,95 Q257,60 288,47 Q316,36 361,33 M381,830 Q381,805 364,787 Q347,769 322,769 Q298,769 281,786 Q264,803 264,826 Q264,850 281,867.5 Q298,885 322,885 Q347,885 364,868.5 Q381,852 381,830 M164,830 Q164,805 146.5,787 Q129,769 104,769 Q81,769 64,786 Q47,803 47,826 Q47,850 64,867.5 Q81,885 104,885 Q130,885 147,868.5 Q164,852 164,830"/> 
            <glyph glyph-name="Ð" unicode="&#xD0;" horiz-adv-x="743" d=" M743,337 Q743,253 709,186.5 Q675,120 618.5,80.5 Q562,41 493.5,20.5 Q425,0 350,0 L44,0 L44,33 Q95,33 118,42 Q149,54 149,91 L149,335 L48,335 L48,377 L149,377 L149,584 Q149,622 118,635 Q87,648 48,650 L48,683 L370,683 Q415,683 461.5,673.5 Q508,664 560,639.5 Q612,615 651.5,577.5 Q691,540 717,477.5 Q743,415 743,337 M620,338 Q620,475 543.5,560 Q467,645 342,645 Q299,645 255,643 L255,377 L393,377 L393,335 L255,335 L255,116 Q260,77 284.5,58 Q309,39 364,39 Q492,39 556,118.5 Q620,198 620,338"/> 
            <glyph glyph-name="Ñ" unicode="&#xD1;" horiz-adv-x="802" d=" M802,650 Q787,649 754,641 Q721,633 710,626 Q691,614 684,582.5 Q677,551 677,492 L677,-7 L635,-7 L192,551 L192,201 Q192,92 226,64 Q238,55 275,44.5 Q312,34 329,33 L329,0 L19,0 L19,33 Q33,34 68.5,43.5 Q104,53 112,59 Q145,82 145,196 L145,528 Q145,581 113,607 Q95,621 60.5,635 Q26,649 6,650 L6,683 L217,683 L630,163 L630,486 Q630,599 596,621 Q582,630 547,639.5 Q512,649 494,650 L494,683 L802,683 M609,891 Q597,848 561,807 Q525,766 481,766 Q437,766 391,793 Q345,820 320,820 Q312,820 305.5,818.5 Q299,817 294,815.5 Q289,814 284,809.5 Q279,805 276,802.5 Q273,800 267.5,792 Q262,784 260,780.5 Q258,777 252,766 Q246,755 243,750 L220,760 Q236,805 269,845 Q302,885 345,885 Q387,885 433.5,858 Q480,831 501,831 Q516,831 527.5,834 Q539,837 545.5,839 Q552,841 559,850.5 Q566,860 568,863 Q570,866 576.5,881 Q583,896 585,900"/> 
            <glyph glyph-name="Ò" unicode="&#xD2;" horiz-adv-x="738" d=" M738,346 Q738,178 634,80 Q533,-16 385,-16 Q246,-16 146,78 Q39,179 39,334 Q39,498 136,595 Q238,699 389,699 Q536,699 643,595 Q688,550 713,484.5 Q738,419 738,346 M617,343 Q617,405 604.5,459 Q592,513 566,558.5 Q540,604 494.5,630.5 Q449,657 389,657 Q282,657 221,573 Q160,489 160,339 Q160,202 218.5,114 Q277,26 389,26 Q501,26 559,113.5 Q617,201 617,343 M443,737 L429,725 Q383,762 336.5,797 Q290,832 281,839 Q261,855 253,866 Q245,877 245,894 Q245,909 256.5,920.5 Q268,932 285,932 Q321,932 346,889 Q395,807 443,737"/> 
            <glyph glyph-name="Ó" unicode="&#xD3;" horiz-adv-x="738" d=" M738,346 Q738,178 634,80 Q533,-16 385,-16 Q246,-16 146,78 Q39,179 39,334 Q39,498 136,595 Q238,699 389,699 Q536,699 643,595 Q688,550 713,484.5 Q738,419 738,346 M617,343 Q617,405 604.5,459 Q592,513 566,558.5 Q540,604 494.5,630.5 Q449,657 389,657 Q282,657 221,573 Q160,489 160,339 Q160,202 218.5,114 Q277,26 389,26 Q501,26 559,113.5 Q617,201 617,343 M515,894 Q515,877 507,866 Q499,855 479,839 Q470,832 423.5,797 Q377,762 331,725 L317,737 Q365,807 414,889 Q439,932 475,932 Q492,932 503.5,920.5 Q515,909 515,894"/> 
            <glyph glyph-name="Ô" unicode="&#xD4;" horiz-adv-x="738" d=" M738,346 Q738,178 634,80 Q533,-16 385,-16 Q246,-16 146,78 Q39,179 39,334 Q39,498 136,595 Q238,699 389,699 Q536,699 643,595 Q688,550 713,484.5 Q738,419 738,346 M617,343 Q617,405 604.5,459 Q592,513 566,558.5 Q540,604 494.5,630.5 Q449,657 389,657 Q282,657 221,573 Q160,489 160,339 Q160,202 218.5,114 Q277,26 389,26 Q501,26 559,113.5 Q617,201 617,343 M542,741 L523,729 L382,863 L243,729 L224,741 Q312,869 340,912 Q350,927 356.5,930.5 Q363,934 384,934 Q405,934 410.5,931 Q416,928 425,914 Q438,895 478,835.5 Q518,776 542,741"/> 
            <glyph glyph-name="Õ" unicode="&#xD5;" horiz-adv-x="738" d=" M738,346 Q738,178 634,80 Q533,-16 385,-16 Q246,-16 146,78 Q39,179 39,334 Q39,498 136,595 Q238,699 389,699 Q536,699 643,595 Q688,550 713,484.5 Q738,419 738,346 M617,343 Q617,405 604.5,459 Q592,513 566,558.5 Q540,604 494.5,630.5 Q449,657 389,657 Q282,657 221,573 Q160,489 160,339 Q160,202 218.5,114 Q277,26 389,26 Q501,26 559,113.5 Q617,201 617,343 M583,896 Q571,853 535,812 Q499,771 455,771 Q411,771 365,798 Q319,825 294,825 Q286,825 279.5,823.5 Q273,822 268,820.5 Q263,819 258,814.5 Q253,810 250,807.5 Q247,805 241.5,797 Q236,789 234,785.5 Q232,782 226,771 Q220,760 217,755 L194,765 Q210,810 243,850 Q276,890 319,890 Q361,890 407.5,863 Q454,836 475,836 Q490,836 501.5,839 Q513,842 519.5,844 Q526,846 533,855.5 Q540,865 542,868 Q544,871 550.5,886 Q557,901 559,905"/> 
            <glyph glyph-name="Ö" unicode="&#xD6;" horiz-adv-x="738" d=" M738,346 Q738,178 634,80 Q533,-16 385,-16 Q246,-16 146,78 Q39,179 39,334 Q39,498 136,595 Q238,699 389,699 Q536,699 643,595 Q688,550 713,484.5 Q738,419 738,346 M617,343 Q617,405 604.5,459 Q592,513 566,558.5 Q540,604 494.5,630.5 Q449,657 389,657 Q282,657 221,573 Q160,489 160,339 Q160,202 218.5,114 Q277,26 389,26 Q501,26 559,113.5 Q617,201 617,343 M553,830 Q553,805 536,787 Q519,769 494,769 Q470,769 453,786 Q436,803 436,826 Q436,850 453,867.5 Q470,885 494,885 Q519,885 536,868.5 Q553,852 553,830 M336,830 Q336,805 318.5,787 Q301,769 276,769 Q253,769 236,786 Q219,803 219,826 Q219,850 236,867.5 Q253,885 276,885 Q302,885 319,868.5 Q336,852 336,830"/> 
            <glyph glyph-name="×" unicode="&#xD7;" horiz-adv-x="524" d=" M524,66 L486,28 L289,226 L93,28 L56,65 L254,261 L56,458 L94,496 L291,298 L487,496 L524,459 L326,263"/> 
            <glyph glyph-name="Ø" unicode="&#xD8;" horiz-adv-x="738" d=" M738,346 Q738,178 634,80 Q533,-16 385,-16 Q262,-16 167,59 L77,-43 L44,-16 L136,88 Q39,187 39,334 Q39,498 136,595 Q238,699 389,699 Q514,699 609,625 L699,727 L733,699 L642,596 Q738,498 738,346 M560,568 Q501,657 389,657 Q282,657 220.5,573 Q159,489 159,339 Q159,228 194,152 M618,343 Q618,452 583,531 L216,116 Q277,26 389,26 Q501,26 559.5,113.5 Q618,201 618,343"/> 
            <glyph glyph-name="Ù" unicode="&#xD9;" horiz-adv-x="789" d=" M789,650 Q771,649 741,642.5 Q711,636 697,627 Q664,606 664,494 L664,200 Q664,142 638.5,98 Q613,54 572.5,30.5 Q532,7 489,-4.5 Q446,-16 404,-16 Q278,-16 207,41 Q136,98 136,180 L136,584 Q136,618 105,634 Q78,647 35,650 L35,683 L346,683 L346,650 Q303,648 274,638 Q243,628 243,589 L243,210 Q243,186 246.5,164.5 Q250,143 262,118.5 Q274,94 293,77 Q312,60 345.5,48.5 Q379,37 424,37 Q480,37 520.5,54.5 Q561,72 580.5,100.5 Q600,129 608,156.5 Q616,184 616,214 L616,488 Q616,600 582,622 Q565,633 532.5,641 Q500,649 480,650 L480,683 L789,683 M458,737 L444,725 Q398,762 351.5,797 Q305,832 296,839 Q276,855 268,866 Q260,877 260,894 Q260,909 271.5,920.5 Q283,932 300,932 Q336,932 361,889 Q410,807 458,737"/> 
            <glyph glyph-name="Ú" unicode="&#xDA;" horiz-adv-x="789" d=" M789,650 Q771,649 741,642.5 Q711,636 697,627 Q664,606 664,494 L664,200 Q664,142 638.5,98 Q613,54 572.5,30.5 Q532,7 489,-4.5 Q446,-16 404,-16 Q278,-16 207,41 Q136,98 136,180 L136,584 Q136,618 105,634 Q78,647 35,650 L35,683 L346,683 L346,650 Q303,648 274,638 Q243,628 243,589 L243,210 Q243,186 246.5,164.5 Q250,143 262,118.5 Q274,94 293,77 Q312,60 345.5,48.5 Q379,37 424,37 Q480,37 520.5,54.5 Q561,72 580.5,100.5 Q600,129 608,156.5 Q616,184 616,214 L616,488 Q616,600 582,622 Q565,633 532.5,641 Q500,649 480,650 L480,683 L789,683 M555,894 Q555,877 547,866 Q539,855 519,839 Q510,832 463.5,797 Q417,762 371,725 L357,737 Q405,807 454,889 Q479,932 515,932 Q532,932 543.5,920.5 Q555,909 555,894"/> 
            <glyph glyph-name="Û" unicode="&#xDB;" horiz-adv-x="789" d=" M789,650 Q771,649 741,642.5 Q711,636 697,627 Q664,606 664,494 L664,200 Q664,142 638.5,98 Q613,54 572.5,30.5 Q532,7 489,-4.5 Q446,-16 404,-16 Q278,-16 207,41 Q136,98 136,180 L136,584 Q136,618 105,634 Q78,647 35,650 L35,683 L346,683 L346,650 Q303,648 274,638 Q243,628 243,589 L243,210 Q243,186 246.5,164.5 Q250,143 262,118.5 Q274,94 293,77 Q312,60 345.5,48.5 Q379,37 424,37 Q480,37 520.5,54.5 Q561,72 580.5,100.5 Q600,129 608,156.5 Q616,184 616,214 L616,488 Q616,600 582,622 Q565,633 532.5,641 Q500,649 480,650 L480,683 L789,683 M574,741 L555,729 L414,863 L275,729 L256,741 Q344,869 372,912 Q382,927 388.5,930.5 Q395,934 416,934 Q437,934 442.5,931 Q448,928 457,914 Q470,895 510,835.5 Q550,776 574,741"/> 
            <glyph glyph-name="Ü" unicode="&#xDC;" horiz-adv-x="789" d=" M789,650 Q771,649 741,642.5 Q711,636 697,627 Q664,606 664,494 L664,200 Q664,142 638.5,98 Q613,54 572.5,30.5 Q532,7 489,-4.5 Q446,-16 404,-16 Q278,-16 207,41 Q136,98 136,180 L136,584 Q136,618 105,634 Q78,647 35,650 L35,683 L346,683 L346,650 Q303,648 274,638 Q243,628 243,589 L243,210 Q243,186 246.5,164.5 Q250,143 262,118.5 Q274,94 293,77 Q312,60 345.5,48.5 Q379,37 424,37 Q480,37 520.5,54.5 Q561,72 580.5,100.5 Q600,129 608,156.5 Q616,184 616,214 L616,488 Q616,600 582,622 Q565,633 532.5,641 Q500,649 480,650 L480,683 L789,683 M582,830 Q582,805 565,787 Q548,769 523,769 Q499,769 482,786 Q465,803 465,826 Q465,850 482,867.5 Q499,885 523,885 Q548,885 565,868.5 Q582,852 582,830 M365,830 Q365,805 347.5,787 Q330,769 305,769 Q282,769 265,786 Q248,803 248,826 Q248,850 265,867.5 Q282,885 305,885 Q331,885 348,868.5 Q365,852 365,830"/> 
            <glyph glyph-name="Ý" unicode="&#xDD;" horiz-adv-x="661" d=" M661,650 Q629,647 603,631 Q582,619 573,611 Q564,603 545,580 Q492,513 393,334 Q358,271 358,222 L358,99 Q358,62 389,49 Q421,36 471,33 L471,0 L139,0 L139,33 Q201,36 221,44 Q252,56 252,94 L252,258 Q252,281 226,333 Q170,443 99,566 Q73,611 33,634 Q8,648 -31,650 L-31,683 L291,683 L291,650 Q287,650 274.5,649.5 Q262,649 255,648.5 Q248,648 236.5,647 Q225,646 218.5,644 Q212,642 204.5,640 Q197,638 193.5,634.5 Q190,631 190,626 Q190,608 343,336 Q503,587 503,613 Q503,633 476,640 Q449,647 401,650 L401,683 L661,683 M498,894 Q498,877 490,866 Q482,855 462,839 Q453,832 406.5,797 Q360,762 314,725 L300,737 Q348,807 397,889 Q422,932 458,932 Q475,932 486.5,920.5 Q498,909 498,894"/> 
            <glyph glyph-name="Þ" unicode="&#xDE;" horiz-adv-x="591" d=" M591,374 Q591,272 515,217.5 Q439,163 333,163 L255,163 L255,93 Q255,55 286,43 Q306,35 365,33 L365,0 L46,0 L46,33 Q100,36 118,43 Q149,55 149,93 L149,585 Q149,621 118,633 Q79,648 45,650 L45,683 L359,683 L359,650 Q315,648 286,638 Q255,628 255,590 L255,538 L377,538 Q468,538 529.5,493.5 Q591,449 591,374 M467,349 Q467,414 434,457 Q401,500 323,500 L255,500 L255,203 L304,203 Q355,203 390,218.5 Q425,234 440,259 Q455,284 461,305.5 Q467,327 467,349"/> 
            <glyph glyph-name="ß" unicode="&#xDF;" horiz-adv-x="563" d=" M563,139 Q563,78 518,32 Q473,-14 409,-14 Q339,-14 303,15.5 Q267,45 267,89 Q267,116 282.5,132 Q298,148 323,148 Q343,148 355.5,135 Q368,122 368,104 Q368,92 359.5,77 Q351,62 351,53 Q351,18 415,18 Q451,18 472.5,38 Q494,58 494,95 Q494,129 476.5,155.5 Q459,182 398,229 Q352,265 327,297 Q302,329 302,366 Q302,393 313,413.5 Q324,434 339.5,449 Q355,464 370.5,480.5 Q386,497 397,525 Q408,553 408,591 Q408,652 381,683 Q354,714 311,714 Q203,714 198,511 Q198,504 197.5,486.5 Q197,469 197,460 L197,0 L31,0 L31,31 Q65,33 79,37 Q106,46 106,83 L106,410 L29,416 L29,447 Q66,449 79,455 Q107,467 107,496 Q107,615 174,686 Q231,747 321,747 Q388,747 436.5,711 Q485,675 485,614 Q485,568 467.5,533.5 Q450,499 429,484 Q408,469 390.5,452.5 Q373,436 373,422 Q373,404 376.5,392.5 Q380,381 400.5,357 Q421,333 463,299 Q521,252 542,221.5 Q563,191 563,139"/> 
            <glyph glyph-name="à" unicode="&#xE0;" horiz-adv-x="507" d=" M507,119 Q500,-10 397,-10 Q332,-10 309,57 L306,57 Q247,-12 155,-12 Q103,-12 71,18.5 Q39,49 39,98 Q39,156 65,186 Q91,216 137,233 Q149,238 216,261 Q283,284 308,297 L308,342 Q308,353 305.5,366 Q303,379 296,398 Q289,417 269.5,429.5 Q250,442 221,442 Q178,442 156,418 Q156,411 160.5,389.5 Q165,368 165,356 Q165,339 149,325.5 Q133,312 107,312 Q84,312 73,327.5 Q62,343 62,366 Q62,410 114.5,442.5 Q167,475 227,475 Q313,475 356.5,445 Q400,415 400,323 Q400,271 397.5,186.5 Q395,102 395,93 Q395,79 406,61.5 Q417,44 439,44 Q473,44 475,119 M309,257 Q266,244 239,233 Q212,222 186,205.5 Q160,189 148,166.5 Q136,144 136,115 Q136,40 205,40 Q240,40 261.5,53 Q283,66 305,91 M304,546 L290,534 Q244,571 197.5,606 Q151,641 142,648 Q122,664 114,675 Q106,686 106,703 Q106,718 117.5,729.5 Q129,741 146,741 Q182,741 207,698 Q256,616 304,546"/> 
            <glyph glyph-name="á" unicode="&#xE1;" horiz-adv-x="507" d=" M507,119 Q500,-10 397,-10 Q332,-10 309,57 L306,57 Q247,-12 155,-12 Q103,-12 71,18.5 Q39,49 39,98 Q39,156 65,186 Q91,216 137,233 Q149,238 216,261 Q283,284 308,297 L308,342 Q308,353 305.5,366 Q303,379 296,398 Q289,417 269.5,429.5 Q250,442 221,442 Q178,442 156,418 Q156,411 160.5,389.5 Q165,368 165,356 Q165,339 149,325.5 Q133,312 107,312 Q84,312 73,327.5 Q62,343 62,366 Q62,410 114.5,442.5 Q167,475 227,475 Q313,475 356.5,445 Q400,415 400,323 Q400,271 397.5,186.5 Q395,102 395,93 Q395,79 406,61.5 Q417,44 439,44 Q473,44 475,119 M309,257 Q266,244 239,233 Q212,222 186,205.5 Q160,189 148,166.5 Q136,144 136,115 Q136,40 205,40 Q240,40 261.5,53 Q283,66 305,91 M363,703 Q363,686 355,675 Q347,664 327,648 Q318,641 271.5,606 Q225,571 179,534 L165,546 Q213,616 262,698 Q287,741 323,741 Q340,741 351.5,729.5 Q363,718 363,703"/> 
            <glyph glyph-name="â" unicode="&#xE2;" horiz-adv-x="507" d=" M507,119 Q500,-10 397,-10 Q332,-10 309,57 L306,57 Q247,-12 155,-12 Q103,-12 71,18.5 Q39,49 39,98 Q39,156 65,186 Q91,216 137,233 Q149,238 216,261 Q283,284 308,297 L308,342 Q308,353 305.5,366 Q303,379 296,398 Q289,417 269.5,429.5 Q250,442 221,442 Q178,442 156,418 Q156,411 160.5,389.5 Q165,368 165,356 Q165,339 149,325.5 Q133,312 107,312 Q84,312 73,327.5 Q62,343 62,366 Q62,410 114.5,442.5 Q167,475 227,475 Q313,475 356.5,445 Q400,415 400,323 Q400,271 397.5,186.5 Q395,102 395,93 Q395,79 406,61.5 Q417,44 439,44 Q473,44 475,119 M309,257 Q266,244 239,233 Q212,222 186,205.5 Q160,189 148,166.5 Q136,144 136,115 Q136,40 205,40 Q240,40 261.5,53 Q283,66 305,91 M392,550 L373,538 L232,672 L93,538 L74,550 Q162,678 190,721 Q200,736 206.5,739.5 Q213,743 234,743 Q255,743 260.5,740 Q266,737 275,723 Q288,704 328,644.5 Q368,585 392,550"/> 
            <glyph glyph-name="ã" unicode="&#xE3;" horiz-adv-x="507" d=" M507,119 Q500,-10 397,-10 Q332,-10 309,57 L306,57 Q247,-12 155,-12 Q103,-12 71,18.5 Q39,49 39,98 Q39,156 65,186 Q91,216 137,233 Q149,238 216,261 Q283,284 308,297 L308,342 Q308,353 305.5,366 Q303,379 296,398 Q289,417 269.5,429.5 Q250,442 221,442 Q178,442 156,418 Q156,411 160.5,389.5 Q165,368 165,356 Q165,339 149,325.5 Q133,312 107,312 Q84,312 73,327.5 Q62,343 62,366 Q62,410 114.5,442.5 Q167,475 227,475 Q313,475 356.5,445 Q400,415 400,323 Q400,271 397.5,186.5 Q395,102 395,93 Q395,79 406,61.5 Q417,44 439,44 Q473,44 475,119 M309,257 Q266,244 239,233 Q212,222 186,205.5 Q160,189 148,166.5 Q136,144 136,115 Q136,40 205,40 Q240,40 261.5,53 Q283,66 305,91 M437,700 Q425,657 389,616 Q353,575 309,575 Q265,575 219,602 Q173,629 148,629 Q140,629 133.5,627.5 Q127,626 122,624.5 Q117,623 112,618.5 Q107,614 104,611.5 Q101,609 95.5,601 Q90,593 88,589.5 Q86,586 80,575 Q74,564 71,559 L48,569 Q64,614 97,654 Q130,694 173,694 Q215,694 261.5,667 Q308,640 329,640 Q344,640 355.5,643 Q367,646 373.5,648 Q380,650 387,659.5 Q394,669 396,672 Q398,675 404.5,690 Q411,705 413,709"/> 
            <glyph glyph-name="ä" unicode="&#xE4;" horiz-adv-x="507" d=" M507,119 Q500,-10 397,-10 Q332,-10 309,57 L306,57 Q247,-12 155,-12 Q103,-12 71,18.5 Q39,49 39,98 Q39,156 65,186 Q91,216 137,233 Q149,238 216,261 Q283,284 308,297 L308,342 Q308,353 305.5,366 Q303,379 296,398 Q289,417 269.5,429.5 Q250,442 221,442 Q178,442 156,418 Q156,411 160.5,389.5 Q165,368 165,356 Q165,339 149,325.5 Q133,312 107,312 Q84,312 73,327.5 Q62,343 62,366 Q62,410 114.5,442.5 Q167,475 227,475 Q313,475 356.5,445 Q400,415 400,323 Q400,271 397.5,186.5 Q395,102 395,93 Q395,79 406,61.5 Q417,44 439,44 Q473,44 475,119 M309,257 Q266,244 239,233 Q212,222 186,205.5 Q160,189 148,166.5 Q136,144 136,115 Q136,40 205,40 Q240,40 261.5,53 Q283,66 305,91 M404,659 Q404,634 387,616 Q370,598 345,598 Q321,598 304,615 Q287,632 287,655 Q287,679 304,696.5 Q321,714 345,714 Q370,714 387,697.5 Q404,681 404,659 M187,659 Q187,634 169.5,616 Q152,598 127,598 Q104,598 87,615 Q70,632 70,655 Q70,679 87,696.5 Q104,714 127,714 Q153,714 170,697.5 Q187,681 187,659"/> 
            <glyph glyph-name="å" unicode="&#xE5;" horiz-adv-x="507" d=" M507,119 Q500,-10 397,-10 Q332,-10 309,57 L306,57 Q247,-12 155,-12 Q103,-12 71,18.5 Q39,49 39,98 Q39,156 65,186 Q91,216 137,233 Q149,238 216,261 Q283,284 308,297 L308,342 Q308,353 305.5,366 Q303,379 296,398 Q289,417 269.5,429.5 Q250,442 221,442 Q178,442 156,418 Q156,411 160.5,389.5 Q165,368 165,356 Q165,339 149,325.5 Q133,312 107,312 Q84,312 73,327.5 Q62,343 62,366 Q62,410 114.5,442.5 Q167,475 227,475 Q313,475 356.5,445 Q400,415 400,323 Q400,271 397.5,186.5 Q395,102 395,93 Q395,79 406,61.5 Q417,44 439,44 Q473,44 475,119 M309,257 Q266,244 239,233 Q212,222 186,205.5 Q160,189 148,166.5 Q136,144 136,115 Q136,40 205,40 Q240,40 261.5,53 Q283,66 305,91 M351,640 Q351,594 318,564 Q285,534 232,534 Q178,534 145.5,563.5 Q113,593 113,640 Q113,686 147,716 Q181,746 232,746 Q284,746 317.5,716.5 Q351,687 351,640 M294,640 Q294,675 277.5,696 Q261,717 232,717 Q203,717 186.5,696.5 Q170,676 170,640 Q170,605 186.5,584 Q203,563 232,563 Q262,563 278,583.5 Q294,604 294,640"/> 
            <glyph glyph-name="æ" unicode="&#xE6;" horiz-adv-x="711" d=" M711,109 Q685,56 635,22 Q585,-12 525,-12 Q407,-12 340,81 L337,81 Q269,-12 159,-12 Q107,-12 73,18.5 Q39,49 39,98 Q39,156 65,186 Q91,216 137,233 Q202,258 309,289 L309,342 Q309,353 306.5,366 Q304,379 296.5,398 Q289,417 269.5,429.5 Q250,442 221,442 Q178,442 156,418 Q156,411 160.5,389.5 Q165,368 165,356 Q165,339 149,325.5 Q133,312 107,312 Q84,312 73,327.5 Q62,343 62,366 Q62,410 114.5,442.5 Q167,475 227,475 Q343,475 378,420 Q436,475 512,475 Q608,475 654,421.5 Q700,368 700,284 L700,258 L398,258 Q398,39 548,39 Q596,39 625,60.5 Q654,82 680,128 M604,295 Q604,441 509,441 Q460,441 429,396.5 Q398,352 398,293 M310,91 L310,252 Q136,218 136,115 Q136,40 205,40 Q266,40 310,91"/> 
            <glyph glyph-name="ç" unicode="&#xE7;" horiz-adv-x="449" d=" M449,107 Q419,55 367.5,21.5 Q316,-12 257,-12 Q243,-12 236,-11 L236,-55 Q368,-55 368,-131 Q368,-237 156,-237 L156,-201 Q240,-201 264,-192 Q296,-180 296,-149 Q296,-132 279,-123.5 Q262,-115 245.5,-113.5 Q229,-112 202,-112 L202,-7 Q120,10 77,74.5 Q34,139 34,233 Q34,331 98,403 Q162,475 263,475 Q339,475 381,441 Q423,407 423,357 Q423,293 367,293 Q347,293 329,305 Q311,317 311,343 Q311,367 318,382 Q325,397 325,404 Q319,441 261,441 Q209,441 172,391 Q135,341 135,237 Q135,151 175,95 Q215,39 281,39 Q327,39 358.5,60 Q390,81 418,127"/> 
            <glyph glyph-name="è" unicode="&#xE8;" horiz-adv-x="452" d=" M452,109 Q424,54 373.5,21 Q323,-12 260,-12 Q150,-12 92,57.5 Q34,127 34,235 Q34,332 93.5,403.5 Q153,475 250,475 Q348,475 394.5,420 Q441,365 441,279 L441,253 L132,253 Q132,39 288,39 Q336,39 364.5,60 Q393,81 421,128 M345,290 Q345,441 249,441 Q200,441 167,399 Q134,357 132,288 M315,546 L301,534 Q255,571 208.5,606 Q162,641 153,648 Q133,664 125,675 Q117,686 117,703 Q117,718 128.5,729.5 Q140,741 157,741 Q193,741 218,698 Q267,616 315,546"/> 
            <glyph glyph-name="é" unicode="&#xE9;" horiz-adv-x="452" d=" M452,109 Q424,54 373.5,21 Q323,-12 260,-12 Q150,-12 92,57.5 Q34,127 34,235 Q34,332 93.5,403.5 Q153,475 250,475 Q348,475 394.5,420 Q441,365 441,279 L441,253 L132,253 Q132,39 288,39 Q336,39 364.5,60 Q393,81 421,128 M345,290 Q345,441 249,441 Q200,441 167,399 Q134,357 132,288 M390,703 Q390,686 382,675 Q374,664 354,648 Q345,641 298.5,606 Q252,571 206,534 L192,546 Q240,616 289,698 Q314,741 350,741 Q367,741 378.5,729.5 Q390,718 390,703"/> 
            <glyph glyph-name="ê" unicode="&#xEA;" horiz-adv-x="452" d=" M452,109 Q424,54 373.5,21 Q323,-12 260,-12 Q150,-12 92,57.5 Q34,127 34,235 Q34,332 93.5,403.5 Q153,475 250,475 Q348,475 394.5,420 Q441,365 441,279 L441,253 L132,253 Q132,39 288,39 Q336,39 364.5,60 Q393,81 421,128 M345,290 Q345,441 249,441 Q200,441 167,399 Q134,357 132,288 M407,550 L388,538 L247,672 L108,538 L89,550 Q177,678 205,721 Q215,736 221.5,739.5 Q228,743 249,743 Q270,743 275.5,740 Q281,737 290,723 Q303,704 343,644.5 Q383,585 407,550"/> 
            <glyph glyph-name="ë" unicode="&#xEB;" horiz-adv-x="452" d=" M452,109 Q424,54 373.5,21 Q323,-12 260,-12 Q150,-12 92,57.5 Q34,127 34,235 Q34,332 93.5,403.5 Q153,475 250,475 Q348,475 394.5,420 Q441,365 441,279 L441,253 L132,253 Q132,39 288,39 Q336,39 364.5,60 Q393,81 421,128 M345,290 Q345,441 249,441 Q200,441 167,399 Q134,357 132,288 M419,659 Q419,634 402,616 Q385,598 360,598 Q336,598 319,615 Q302,632 302,655 Q302,679 319,696.5 Q336,714 360,714 Q385,714 402,697.5 Q419,681 419,659 M202,659 Q202,634 184.5,616 Q167,598 142,598 Q119,598 102,615 Q85,632 85,655 Q85,679 102,696.5 Q119,714 142,714 Q168,714 185,697.5 Q202,681 202,659"/> 
            <glyph glyph-name="ì" unicode="&#xEC;" horiz-adv-x="268" d=" M268,0 L35,0 L35,31 Q64,33 79,37 Q106,46 106,81 L106,361 Q103,395 79,411 Q58,425 20,427 L20,457 L190,468 L197,461 L197,87 Q197,52 224,42 Q249,32 268,31 M218,546 L204,534 Q158,571 111.5,606 Q65,641 56,648 Q36,664 28,675 Q20,686 20,703 Q20,718 31.5,729.5 Q43,741 60,741 Q96,741 121,698 Q170,616 218,546"/> 
            <glyph glyph-name="í" unicode="&#xED;" horiz-adv-x="268" d=" M268,0 L35,0 L35,31 Q64,33 79,37 Q106,46 106,81 L106,361 Q103,395 79,411 Q58,425 20,427 L20,457 L190,468 L197,461 L197,87 Q197,52 224,42 Q249,32 268,31 M250,703 Q250,686 242,675 Q234,664 214,648 Q205,641 158.5,606 Q112,571 66,534 L52,546 Q100,616 149,698 Q174,741 210,741 Q227,741 238.5,729.5 Q250,718 250,703"/> 
            <glyph glyph-name="î" unicode="&#xEE;" horiz-adv-x="268" d=" M265,550 L246,538 L128,675 L12,538 L-7,550 Q22,597 54,656.5 Q86,716 89,721 Q98,737 103.5,740 Q109,743 130,743 Q145,743 151.5,741 Q158,739 159.5,736.5 Q161,734 168,723 Q175,711 206,654 Q237,597 265,550 M268,0 L35,0 L35,31 Q64,33 79,37 Q106,46 106,81 L106,361 Q103,395 79,411 Q58,425 20,427 L20,457 L190,468 L197,461 L197,87 Q197,52 224,42 Q249,32 268,31"/> 
            <glyph glyph-name="ï" unicode="&#xEF;" horiz-adv-x="286" d=" M286,659 Q286,634 269.5,616.5 Q253,599 228,599 Q204,599 187.5,615.5 Q171,632 171,655 Q171,679 187.5,696.5 Q204,714 228,714 Q253,714 269.5,697.5 Q286,681 286,659 M99,659 Q99,634 82,616 Q65,598 40,598 Q17,598 0.5,615 Q-16,632 -16,655 Q-16,679 0.5,696.5 Q17,714 40,714 Q66,714 82.5,697.5 Q99,681 99,659 M268,0 L35,0 L35,31 Q64,33 79,37 Q106,46 106,81 L106,361 Q103,395 79,411 Q58,425 20,427 L20,457 L190,468 L197,461 L197,87 Q197,52 224,42 Q249,32 268,31"/> 
            <glyph glyph-name="ð" unicode="&#xF0;" horiz-adv-x="494" d=" M494,295 Q494,156 432.5,71 Q371,-14 259,-14 Q167,-14 100,53 Q33,120 33,235 Q33,342 95,408.5 Q157,475 255,475 Q298,475 333.5,455 Q369,435 387,407 L391,408 Q378,528 311,624 L196,554 L174,589 L287,655 Q256,693 204,727 L225,750 Q285,720 329,678 L427,738 L449,703 L359,650 Q494,521 494,295 M392,247 Q392,330 359,385 Q326,440 265,440 Q195,440 164.5,383 Q134,326 134,241 Q134,137 166.5,78.5 Q199,20 264,20 Q309,20 338.5,54 Q368,88 380,137 Q392,186 392,247"/> 
            <glyph glyph-name="ñ" unicode="&#xF1;" horiz-adv-x="566" d=" M566,0 L330,0 L330,31 Q362,33 377,37 Q404,46 404,81 L404,312 Q404,361 379.5,390 Q355,419 321,419 Q273,419 240.5,395.5 Q208,372 196,348 L196,86 Q196,54 223,42 Q243,33 270,31 L270,0 L34,0 L34,31 Q63,33 78,37 Q105,46 105,81 L105,361 Q101,398 78,414 Q61,425 29,427 L29,457 L189,468 L196,461 L196,393 L198,393 Q199,394 210,405 Q221,416 224,418.5 Q227,421 237.5,430.5 Q248,440 253.5,443 Q259,446 269.5,453 Q280,460 288.5,462.5 Q297,465 309,468.5 Q321,472 333.5,473.5 Q346,475 360,475 Q428,475 462,433 Q496,391 496,317 L496,85 Q496,53 522,41 Q542,32 566,31 M501,700 Q489,657 453,616 Q417,575 373,575 Q329,575 283,602 Q237,629 212,629 Q204,629 197.5,627.5 Q191,626 186,624.5 Q181,623 176,618.5 Q171,614 168,611.5 Q165,609 159.5,601 Q154,593 152,589.5 Q150,586 144,575 Q138,564 135,559 L112,569 Q128,614 161,654 Q194,694 237,694 Q279,694 325.5,667 Q372,640 393,640 Q408,640 419.5,643 Q431,646 437.5,648 Q444,650 451,659.5 Q458,669 460,672 Q462,675 468.5,690 Q475,705 477,709"/> 
            <glyph glyph-name="ò" unicode="&#xF2;" horiz-adv-x="494" d=" M494,236 Q494,129 431,57.5 Q368,-14 259,-14 Q165,-14 99,53 Q33,120 33,229 Q33,338 97,406.5 Q161,475 266,475 Q369,475 431.5,407.5 Q494,340 494,236 M393,235 Q393,322 362.5,381.5 Q332,441 265,441 Q228,441 201,422.5 Q174,404 160,373 Q146,342 140,308.5 Q134,275 134,237 Q134,142 166.5,81 Q199,20 265,20 Q328,20 360.5,80.5 Q393,141 393,235 M341,546 L327,534 Q281,571 234.5,606 Q188,641 179,648 Q159,664 151,675 Q143,686 143,703 Q143,718 154.5,729.5 Q166,741 183,741 Q219,741 244,698 Q293,616 341,546"/> 
            <glyph glyph-name="ó" unicode="&#xF3;" horiz-adv-x="494" d=" M494,236 Q494,129 431,57.5 Q368,-14 259,-14 Q165,-14 99,53 Q33,120 33,229 Q33,338 97,406.5 Q161,475 266,475 Q369,475 431.5,407.5 Q494,340 494,236 M393,235 Q393,322 362.5,381.5 Q332,441 265,441 Q228,441 201,422.5 Q174,404 160,373 Q146,342 140,308.5 Q134,275 134,237 Q134,142 166.5,81 Q199,20 265,20 Q328,20 360.5,80.5 Q393,141 393,235 M375,703 Q375,686 367,675 Q359,664 339,648 Q330,641 283.5,606 Q237,571 191,534 L177,546 Q225,616 274,698 Q299,741 335,741 Q352,741 363.5,729.5 Q375,718 375,703"/> 
            <glyph glyph-name="ô" unicode="&#xF4;" horiz-adv-x="494" d=" M494,236 Q494,129 431,57.5 Q368,-14 259,-14 Q165,-14 99,53 Q33,120 33,229 Q33,338 97,406.5 Q161,475 266,475 Q369,475 431.5,407.5 Q494,340 494,236 M393,235 Q393,322 362.5,381.5 Q332,441 265,441 Q228,441 201,422.5 Q174,404 160,373 Q146,342 140,308.5 Q134,275 134,237 Q134,142 166.5,81 Q199,20 265,20 Q328,20 360.5,80.5 Q393,141 393,235 M424,550 L405,538 L264,672 L125,538 L106,550 Q194,678 222,721 Q232,736 238.5,739.5 Q245,743 266,743 Q287,743 292.5,740 Q298,737 307,723 Q320,704 360,644.5 Q400,585 424,550"/> 
            <glyph glyph-name="õ" unicode="&#xF5;" horiz-adv-x="494" d=" M494,236 Q494,129 431,57.5 Q368,-14 259,-14 Q165,-14 99,53 Q33,120 33,229 Q33,338 97,406.5 Q161,475 266,475 Q369,475 431.5,407.5 Q494,340 494,236 M393,235 Q393,322 362.5,381.5 Q332,441 265,441 Q228,441 201,422.5 Q174,404 160,373 Q146,342 140,308.5 Q134,275 134,237 Q134,142 166.5,81 Q199,20 265,20 Q328,20 360.5,80.5 Q393,141 393,235 M460,700 Q448,657 412,616 Q376,575 332,575 Q288,575 242,602 Q196,629 171,629 Q163,629 156.5,627.5 Q150,626 145,624.5 Q140,623 135,618.5 Q130,614 127,611.5 Q124,609 118.5,601 Q113,593 111,589.5 Q109,586 103,575 Q97,564 94,559 L71,569 Q87,614 120,654 Q153,694 196,694 Q238,694 284.5,667 Q331,640 352,640 Q367,640 378.5,643 Q390,646 396.5,648 Q403,650 410,659.5 Q417,669 419,672 Q421,675 427.5,690 Q434,705 436,709"/> 
            </font>
</defs>
</svg>
